/* XPM */
static char *_25611341d1249c7a91a14ba4abbd403uuEabTs8C5cXPQRv[] = {
/* columns rows colors chars-per-pixel */
"64 64 235 2 ",
"   c #050304",
".  c #0C050B",
"X  c #0B0708",
"o  c #12060A",
"O  c #120B0D",
"+  c #1A0B0D",
"@  c #16110E",
"#  c #0E0711",
"$  c #120714",
"%  c #140D13",
"&  c #190E14",
"*  c #160D18",
"=  c #1A0E1B",
"-  c #161214",
";  c #1B1315",
":  c #1B141A",
">  c #1D191D",
",  c #171518",
"<  c #22160D",
"1  c #231314",
"2  c #22151B",
"3  c #221B1E",
"4  c #2B1A1C",
"5  c #281A14",
"6  c #1E2000",
"7  c #202200",
"8  c #2D231E",
"9  c #34231A",
"0  c #383510",
"q  c #1F1A20",
"w  c #1F1521",
"e  c #231622",
"r  c #231C22",
"t  c #2A1D25",
"y  c #261C28",
"u  c #2A1D2A",
"i  c #291724",
"p  c #262225",
"a  c #2B2225",
"s  c #2C242B",
"d  c #2E292E",
"f  c #282427",
"g  c #322524",
"h  c #32252C",
"j  c #33292D",
"k  c #3D2B2E",
"l  c #3A272B",
"z  c #3A3228",
"x  c #2F2430",
"c  c #2E2931",
"v  c #332531",
"b  c #342C33",
"n  c #3A2D34",
"m  c #372D3A",
"M  c #3C2D3A",
"N  c #352637",
"B  c #353134",
"V  c #3C3235",
"C  c #3D333B",
"Z  c #3E3A3E",
"A  c #383438",
"S  c #2E312E",
"D  c #443B1C",
"F  c #422F2B",
"G  c #433D24",
"H  c #433236",
"J  c #42343C",
"K  c #443A3E",
"L  c #493B3D",
"P  c #423830",
"I  c #4E3531",
"U  c #4A4318",
"Y  c #75791D",
"T  c #4B443E",
"R  c #5D4C31",
"E  c #684A3F",
"W  c #6B6A36",
"Q  c #3F3640",
"!  c #3F3A41",
"~  c #3D2C41",
"^  c #433642",
"/  c #433A43",
"(  c #4A3C44",
")  c #463C49",
"_  c #4C3D4A",
"`  c #483644",
"'  c #523E48",
"]  c #523E56",
"[  c #4B4246",
"{  c #46424A",
"}  c #4C434A",
"|  c #494348",
" . c #52444C",
".. c #544B4E",
"X. c #5A494D",
"o. c #534546",
"O. c #4F4950",
"+. c #544652",
"@. c #594553",
"#. c #544A52",
"$. c #5A4C55",
"%. c #5C4E59",
"&. c #57495A",
"*. c #555054",
"=. c #5C5255",
"-. c #5E525A",
";. c #5C514E",
":. c #624947",
">. c #624E5C",
",. c #624D56",
"<. c #645355",
"1. c #645B54",
"2. c #62535C",
"3. c #6B555C",
"4. c #65585F",
"5. c #6C5A5C",
"6. c #695856",
"7. c #725D5F",
"8. c #76574C",
"9. c #6C634B",
"0. c #5D4F62",
"q. c #624D64",
"w. c #655461",
"e. c #655B63",
"r. c #6C5C65",
"t. c #6A5867",
"y. c #715D6A",
"u. c #695770",
"i. c #6D636A",
"p. c #736164",
"a. c #74656E",
"s. c #7D6A6C",
"d. c #746670",
"f. c #796472",
"g. c #7C6A73",
"h. c #7A6A76",
"j. c #7D7178",
"k. c #7F7370",
"l. c #806A6D",
"z. c #836D7C",
"x. c #836E72",
"c. c #85727D",
"v. c #8A737D",
"b. c #827375",
"n. c #8E7770",
"m. c #A17D70",
"M. c #898B39",
"N. c #86845A",
"B. c #9C9770",
"V. c #AD8678",
"C. c #A9A973",
"Z. c #C0C55F",
"A. c #856C82",
"S. c #8B7482",
"D. c #8B7984",
"F. c #857881",
"G. c #947C8B",
"H. c #957C8B",
"J. c #997D94",
"K. c #9C8392",
"L. c #998896",
"P. c #988A93",
"I. c #A0859B",
"U. c #A48C9C",
"Y. c #A48C9A",
"T. c #AA919E",
"R. c #A58AA2",
"E. c #A98DA5",
"W. c #AD8DA8",
"Q. c #AD93A2",
"!. c #AE93A9",
"~. c #A49BA3",
"^. c #B599AA",
"/. c #BC9DB2",
"(. c #BF9DB9",
"). c #ADA2AA",
"_. c #BBA1AF",
"`. c #BEA2B3",
"'. c #B6A8B4",
"]. c #BDB6B6",
"[. c #C19FB8",
"{. c #C0A3B5",
"}. c #C4A4BA",
"|. c #C9A6BE",
" X c #CAABBE",
".X c #C4A9B9",
"XX c #CDB0BF",
"oX c #D1D08D",
"OX c #E1E584",
"+X c #CEACC2",
"@X c #D2AEC5",
"#X c #D3AFC8",
"$X c #CFB1C2",
"%X c #C7BEC7",
"&X c #D3B1C6",
"*X c #D5B2C9",
"=X c #D9B6CC",
"-X c #D7B9C9",
";X c #DBBACE",
":X c #DCB7D0",
">X c #DEBCD1",
",X c #E1BDD3",
"<X c #E2BED4",
"1X c #E2BED6",
"2X c #E4BFD7",
"3X c #E2BED4",
"4X c #E5BFD8",
"5X c #CDC3CB",
"6X c #D8C8D4",
"7X c #DAD2D9",
"8X c #CFC7D1",
"9X c #E2C1D5",
"0X c #E4C2D6",
"qX c #E6C5D7",
"wX c #E4C2D6",
"eX c #E7C6D8",
"rX c #E6C5D8",
"tX c #E6C4D9",
"yX c #E8C7DA",
"uX c #E8C7DA",
"iX c #E9C9DA",
"pX c #E9C9DB",
"aX c #E8C8DB",
"sX c #E9CADB",
"dX c #EACADB",
"fX c #E8C8D9",
"gX c #E9CADC",
"hX c #E9C9DB",
"jX c #E7C9D9",
"kX c #E2DCE2",
"lX c #F4EDF4",
"zX c #F2E7F1",
"xX c #FFFCFF",
"cX c #F9F3FA",
"vX c #F6F0E7",
/* pixels */
"@X&X&X@X*X@X@X*X*X@X@X&X&X&X&X@X=XaXuX.X+X*X1X2X2X1X@X9XaXuXgX;X@X*X&X&X*X@X@X#X*X@X@X*X&X*X&X@X=XaXeX>X9X&X1X2X1XtX@X9XpXeXaX=X",
"=XaXpXaX9X*X>XtX1X,X*X>XaXaXaX>X=XaX.Xf e.&X>X0X2X,X@X9XaXpXpX;X=XaXpXaX1X*X>XtX1X,X*X1XaXpXuX>X;XaX_.#.$X*X>X2X1X1X@X0XgXaXpX;X",
"=XaXpXpXuX*X,X,X1X1X@X,XaXaXdX;X*X9XG.  > ^.;X1X,X;X@X;X9XtX0X*X;XpXuXaXeX*X,X,X1X1X@X9XpXaXpX;X*X9Xy.X G.@X;X,X,X:X@X>X0X9X0X;X",
"*XaXeXaXeX@X,X1X1X9X*X9XaXwXaX;X@X&XS.    2.@X@X@X&X*X&X+X@X&X@X=XpXwXaX0X@X1X1X1X1X@X9XaXwXaX;X@X/.s O #.|.@X@X@X&X@X*X+X+X*X@X",
"=XaXpXaXeX@X1XtX2X1X*X,XaXaXgX;X=XwXa.  , , T.aXaXwXeXeXuXaXwX;X=XpXaXaX0X@X,XtXtX1X*X9XaXaXpX;X=XG.- - , Q.wXaXaXuXwXeXaXaXeX=X",
";XeXpXeXeX*X,X1X2X,X*X>XaXaXaX;X=X-Xs X , % V $XwXwXpXaXeXaXaX>X;XaXeXaX0X*X,X1X4X,X*X1XaXaXaX;X{.C - O  .;XwXeXwXaXaXaXeXaXaX;X",
";XaXpXaXuX@X1XtX0X0X=X9XaXaXaX>X;XjXf., > , % } g.=XpXuXuXaXpX>X=XaXaXaX0X&X1X0X2X0X*X0XaXaXaX|.( - > 3 z.pXaXaXpXaXpXuXuXaXpX>X",
";XaXaXuXeX@X,X1X1X1X@X>XaXeXgX;X=XpXK.r > r , X - .. XaXaXaXaX=X;XaXwXuX0X@X,X1X1X1X@X,XaXeX-X} O > 3 C C -XwXuXaXaXaXaXaXeXaX;X",
";XaXaXaXeX#X,X4X2X,X*X,XaXuXaX;X=X;X( Z A - , > % X g.wXwXaXaX=X=XaXaXaX>X@X,X2X2X1X*X9XaX$X .. : % B ..B T.aXuXeXaXaXeXuXaXaX;X",
";XaXaXaXeX#X,X4X2X,X*X,XaXuXaX;X+XK.B *.{ r , - > % h {.@X@X;X@X=XaXaX^.d.+X1X2X2X1X*X9X.XJ & 2 ; ; K =.B y.@X&X&X@X@X&X@X+X*X@X",
";XaXaXaXeX#X,X4X2X1X*X,XaXuXaX;X*Xw.Z | O.d > - > , O a.>X>X0X*X;XaXT.j } ^.H.>X2X1X@XK.J X.l 4 ; 3 [ *./ } Q.1X,X1X1X1X,X,X0X;X",
";XaXaXaXeX*X,XtX2X1X*X,XaXuXaX;X`.b | } O.C r > % : - - U.aXwX$X|.D.| #.` ` J @X1X&Xr.@ L s.v.F @ 3 [ ..| 3 ( 9XaXaXaXaXaXaXaX=X",
";XaXaXaXeX*X,XtX2X1X*X,XaXeXaX;XK.e | #.+.} e * - : s a a r. .n h / h.{ a [ ; s } C X ; ; 4 ' 5.g ; L =.=.f ( 9XaXaXaXaXaXwXaX;X",
";XaXaXaXeX*X,XtX2X,X*X,XaXeXaX;Xf.r $.#.} / e : r t f K a a f f } i.-. .4. .V B S p O ; l 1 1 4 V a J ....C r.wXuXaXaXeXeXuXaX;X",
";XaXaXaXeX*X,XtX2X,X*X,XaXuXaX;XQ.b } #.} v e : - b V K K K K K (  .( -. .J J J K | b V J t t 2 2 : b -. .p / &XaXpXaXaXaXpXaX;X",
";XaXaXaXeX*X,XtX2X,X*X,XaXuXaX>X|.>.B #.| r 3 3 ; : V / ( ( ( ( ( J (  . .( J ( [ 4.[ K K n j ; - - 3 / O.p ( &X;X=X;X;X=X=X;X&X",
"-XaXaXaXeX@X2X1X2X,X&X>XpXaXaX;Xz.d B | s r 3 r 3 h J J } } } } _ ( ( ( ( ( ( ( $.$.$.(  .L n t : : > > A v K.*X*X@X@X&X&X*X&X@X",
"=XpXaXgXuX&X,X1X1X,X*X,XgXpXaX;XY.s > d : 3 t h b J ^ ` / ( _ ( ^ ` / ` ` ` ` / / / '  . .( J j s f s f % y.,XtXtX,X=X0XaXpXaX>X",
"*XtX1X0X>X@X:X,X,X;X#X;X9XtX9XS.s , > 3 r s n C C J J J J J ^ C M J / ^ ^ ^ ^ J n H J o.X.o.K V V V V V 3 S.1X,X1X,X@X9XaXaXpX;X",
"@X*X X@X@X@X&X@X@X@X*X@X+X@X&X( C A B b b b C J K J J J J J M n v M ` C M ^ J J t j H L X.X.L J J J J C s f.9X4X1X1X@X0XaXwXaX;X",
"=XuXaXaX0XeXeXaXaXwXeXwXaXpX;XC A A A A h & - b n J J J H J v = e M ` ^ M ^ M i 2 t n L ' y.( V J J J J s w.,X1X2X1X@X9XaXuXaX;X",
"=XaXaXaXaXpXaXwXwXwXpXaXaXuX;Xn A A A C  .K h 3 h n J J n J n i u M _ _ ^ ^ M h t h n J n e.4.n C C C C v  .1X1X+XG.+X9XaXaXaX>X",
";XpXpXaXpXaXaXpXpXaXpX-XeXaX;Xn A C V V V n s r r h n C n ` ^ v M M _ &.' ^ M M n n H J h  .j.J n n n b V r z.c.b  .@X9XaXuXaX>X",
"=XpXaXwXaXaXeXaXaXaXeXe.G.9X-Xn V V V V j 8 P 1.h r v n n J ` M ^ M _ w.&.^ M / K J J J j j c...l l j j b e , s > G.@X9XaXuXpX>X",
";XaXaXaXaXaXaXaXeXuX>XJ e ` ( 1 z z n n V < B.vX1.  N N a n M v J  .w.w.>.@.` J h v n C H l p.p.k H k n j C ! A %.+XK. XaXaXaX;X",
"+X*X+X@X@X@X+X@X*X@X@X .C b s a 8 g h h g D oXoXG V a t h 2 2 i  .2.w.$.2.>.@.` u h j j n j ( H 4 F k h J C s y 2.^ , T.aXaXaX;X",
"=X0X>X>X,X,X,X1X=X&X9XG.b V C j g h v h 5 R OXZ.7 W N.X 5 3 b  .4.2.$.$.%.2.>.+.J n n j V 2 o + l :.7.X. .$.+.) Z f s }.aXaXaX;X",
"=XaXaXaXaXaXaXaX X} =.r.r s ` J M M ~ M 9 U M.Y 6 W C.0 V +.-.%.2.#.$.2.2.%.2.>.2.} J C n 2 j <.p.x.l.6.2.e.e.*.{ , %.0XaXaXaX;X",
";XaXaXaXaXaXaXuXaXD.f B / | -.%.u.0.&.e.5.9.9.9.G G G z e.0./ n A b C J $._ J h J  .r.-./ #.r.g.b.l.5.,.$.w.-./ p r f.0XaXaXaX;X",
"=XaXaXaXeXaXaXaXuXeXY.n e / +.%.u.q.>.6.x.x.k.k.;.o.T T -./ e.%XkXlX7XL.K r.~.5XP.n w.r.%.-.4.4.x.7.<.<.r.-.} Z ! p K.0XaXaXaX;X",
"=XpXpXaXaXaXpXjXG.=.J p s A | w.%.2.6.<.1.6.1.1.1.1.=.=.j b.xXxXxXxXxXlXzXlXxXxX5Xb $.+.w.2.2.,.p.3.3.,.=.$.+.O.A $.|.0XaXaXaX;X",
"#X>X=X;X;X;X;X;Xr., b A / | -.#.%.4.4.X.6.1.1.1.1.1.-.-.K ].7X8X%X7XkXkXcXcXxXxXP.A w.2.$.-.2.4.r.5.<.X.2.e.$.A ` }.@X0XaXaXaX;X",
"@X&X*X@X*X@X@X*X/.C b Z *.#.+.#.-.4.4.2.2.2.2.2.-.-.-.-.b ).%XzXzX6X'.~.~.'.5X).` } -.w.-.2.2.2.<.<.2.2. ...C b I.1X@X9XpXeXaX;X",
";XaXpXpXeX*X>XtXtX`.} p | +. .$.-.-.2.2.2.%.2.2.-.-.-.-.( m e.d.#./ / -.+.#.#.C } +.-.2.-.2.2.2.<.<.2.2.$.| b p $.;X@X9XdXpXpX;X",
"=XaXaXaXeX@X,X1X1X,X|.v.: s n C $.$.%.%.%.%.2.2.-.-.2.2.r.$.+. .#.h.D.F.D.F.d.r.%.-.-.-.-.2.2.2.<.<.2.2.-.$.C ^ ^.;X@X=X>X>X>X*X",
";XaXeXaXeX@X9X0X1X0X*X;Xr.s ) $.#.#.$.$.%.%.2.2.-.-.2.%.%.2.w.%.w.a.j.j.a.d.-.r.w.2.2.-.-.-.2.2.<.<.2.1. .n $./.*X=X*X*X&X&X=X@X",
"=XaXaXaXeX*X,X2X2X1X*X>X;Xh.b h h v ^ 2.r.r.$.2.w.w.2.2.2.2.%.2.2.2.2.2.2.-.-.2.#.$.-.2.2.#.#.2.<.%.( n r.^.wXaXuXpXaXaXaXaXaX;X",
";XaXpXaXeX*X,XtX2X1X*X,XaXaX&XT.K.'  ._ ( %.+.%.%.2.2.w.w.w.w.w.-.-.-.2.2.-.%.-.-.-.2.2.2.$.$.2.=.$.C ` T.>XwXjXeXaXeXeXaXaXaX;X",
";XuXuXaXeX*X1XtX1X1X*X1XaXuXaX;X;X%.b v s n h h b M ^ _ } #.%.%.$.%.%.-.-.$.$.-.-.$.#. .( C C ( V K b r p D.eXpXaXpXaXaXaXaXpX>X",
";XaXpXaXeX@X,X1X1X,X@X,X9XQ.S./.=X%.( Q.b v r J ` b b s e h M ^ n n n A A b b b v s t t n _ J : % g.D.K.`.9XaXaXaXaXaXaXaXeXpX;X",
";XaXaXaXeX*X,XtX2X;X*X/.( f p %.&X^. X$XJ _ K.;X9X Xf.3 * e s s h h h d s s j V v s H./.&X9X=XS.C I.eXwX0XeXuX0XwXaXeX0XwXwXeX=X",
";XaXaXaXeX*X,X1XH.z.!.b f A b A {.&X+X@X}. X+X#X[.@.* % : e s s s s s s s f s j s * S.9XaXaXaX;X{.}.+X@X#X@X@X@X@X@X@X@X@X+X*X@X",
";XaXaXaXeX*X,XG.> 2. .b B / b ( &XuX9XwXeX0X9X$X} # - , : r s x d d d d r r r s r - b &XaXaXaX;X;XeX0X0X0X0X9X0XwX0X0XwX0X0XeX;X",
";XaXaXaXeX*X|.s B r r Z f B p j  .2.Y.wXaXQ.c.( % * , q : r s x d d c c e q r f r , % G.aXaXaX;X&XaXaXwXwXaXaXaXaXaXaXuXwXaXaX-X",
";XaXaXaXeX*XG.p A B B r > r f f d , K.pXpXG.% , : > r r w y s s e j / } | v * r r > *  .wXaXaX;X;XpXpXaXaXpXaXaXaXaXpXaXaXaXpX>X",
";XaXaXaXeX*Xz.> d b B , , r d b > d.aXaXaX_., % : > r r b m v s s s j v v r % r > > : s XXaXaX;X=XaXaXuXaXaXaXeXeXuXaXuXaXaXaX;X",
";XaXaXaX9Xf. .r B , > > r > > p s XXaXaX;Xr.% % , > r r x / } } b s s s > 3 , d c f e : T.aXaX;X-XaXdXaXeXpXaXwXwXaXaXeXaXaXaX=X",
";XaXaXaX9X/   > f , , - > , - %  .+XG.r.C p p , , > r r / +.-.+.| A V C : e r C O.Z f $ c.aXaX;X#X;X*X=X;X;X;X=X=X;X;X;X;X&X;X*X",
"=XuXaXaXeXv.f 3 f r , , , - - % f. Xb r d p 3 : : e v Z +.+.+.+./ / / ! Q C C C O.#.{ m ) S..X;X@X;X;X=X=X@X*X*X*X*X@X=X=X=X=X*X",
"=XaXpXdX9XS.- 3 f r : ; 3 V L + f.aX`.#., : r r e e r s / / / / / / / / Q C C C { O.{ m % s {.=X;XaXpXpX0X;X1XtXtX,X=X9XpXpXaX1X",
"&X>X;X>X+Xn f p f r : 1 < F m.E 3.aX X[ p 3 , - : > e r C C ^ ^ / / / ! Q C C C ! { ) c e H.>X&X=XaXaXaX9X@X>X1X1X>X@X9XaXaXaX;X",
"@X;X@X&X&X .p A s r : ; 5 I m.m.( ;XK.$.p : > 3 : e v C / / / / / / / / Q C Q ! C C C d : w.&X+X;XaXwXaX0X&X1X1X1X1X*X0XaXeXaX;X",
";XaXaXaXaXL.@ 8 s r : @ 9 8.V.8.4 Q.9Xy.: : - - > e r v C ^ ^ ^ ^ ^ ^ ^ ^ ^ / / / ) C : ^ ;XaX;X=XaXeXaX9X@X1X2X2X1X@X9XaXaXaX;X",
"=XaXaXjXeX9X=.O - : - ; < 9 E :.; [ G.C $.r - - : > > r A ^ ^ ^ C ^ C m m Q / / Q / b % } wXaX=X;XpXuXpX0X@X1XtXtX1X#X0XaXaXpX;X",
";XpXpXaXaXaX Xa - - - , 3 ; 1 4 ; % $.{.,X( % : : : > > v C ^ ^ C / C r u b Q Q C C v $ -.uXpX;X;XaXuXaX0X*X1X1X2X1X*X0XaXuXaX;X",
"=XpXaXaXpXwX{.p a r , - - > : % 3 : . s c.,.O : : : : > r C ^ ^ m ) C = = u m C C C c # S.wXpX=X;XaXuXaX9X&X,X2X1X,X*X0XaXaXaX;X",
";XeXeXeXtXuX>X2., 3 > - , , , ; 2 3 , - o ; o , : : = = e M _ ) / Q / y $ m M C Q m r $ ^.eXeX=X;XaXaXaX9X&X,X2X2X1X@X0XaXaXaX;X",
"+X&X+X@X@X@X+X}.g.> - % - - , > 3 3 : - ; - O O e w : * . : x C b u x * $ x x v A e . v {.+X*X+X;XaXuXaX9X*X,X2X2X1X@X0XaXaXaX;X",
"=XtX9X9X0X9X9X9X0XK.s X - , 3 p K B 3 O : - - $ : : : : o . % t 3 : r O o r 3 t a % . w./.&XeX>X;XaXuXaX9X*X1X2X2X1X@X0XaXaXaX;X",
"&XaXaXaXaXaXaXaXaXaX Xg.C 3 : , ; 2 > > e : $ # . * 3 s j % . % % & r O   r & : O - * t.U.R.}.*X;XaXuXaX9X*X1X2X2X1X@X0XaXaXaX;X",
"=XaXuXuXaXaXuXuXaXaXaXaX6X X/.K.z.g.r.r.w.] ] q.w.M e e y s N w $ $ $ $ * $ $ $ * : y h.I.L.`.;X;XaXuXaX9X*X1X2X2X1X@X0XaXaXaX;X",
"=XaXaXaXaXaXaXuXaXaXuXuXaXuXaX;X;XaXaXaXwX|./.E.I.J.A.z.A.G.K.A.q.&.&.q.f.t.&.@.y.z.G.U.!.+X9X;X;XaXuXaX9X*X1X2X2X1X@X0XaXaXaX;X",
"=XaXaXaXeXaXaXuXaXaXaXaXaXaXaX;X;XaXaXaXwX@X1X:X+X}.W.!.!.E.E.I.J.R.R.R.R.E.!.!.^.{.+X=X9XpXaX=X;XaXuXaX9X*X,X2X2X1X@X0XaXaXaX;X",
"@X;X*X=X=X=X=X=X;X=X;X;X=X*X;X@X;XaXaXaXwX@X1X1X1X2X*X>X9X>X;X+X(.}.[.{.}.|.+X@X&X*X*X*X*X@X*X@X;XaXaXaX9X&X,X2X2X1X@X0XaXaXaX;X"
};
