/* XPM */
static char *dc4aac725b204f89afd093e3bb55020cq2do71HyyUXj07zs[] = {
/* columns rows colors chars-per-pixel */
"64 64 240 2 ",
"   c #CD344A",
".  c #CF3548",
"X  c #D2344C",
"o  c #D8384B",
"O  c #D33552",
"+  c #D43A53",
"@  c #DB3C54",
"#  c #DC3D5C",
"$  c #DA3651",
"%  c #E33E55",
"&  c #E43E5A",
"*  c #E93E5C",
"=  c #EE3B57",
"-  c #F63F5A",
";  c #DE445C",
":  c #E34056",
">  c #E4435C",
",  c #EB435C",
"<  c #EC4257",
"1  c #F3435B",
"2  c #FE4E5C",
"3  c #FB455A",
"4  c #FF5357",
"5  c #FF545D",
"6  c #FF5A5D",
"7  c #F7565F",
"8  c #DE4262",
"9  c #DF5F76",
"0  c #E54363",
"q  c #EA4563",
"w  c #E44963",
"e  c #EA4B64",
"r  c #EA466A",
"t  c #E54C6B",
"y  c #EC4C6C",
"u  c #E6476B",
"i  c #F34C63",
"p  c #FD4C64",
"a  c #F14D6B",
"s  c #F84767",
"d  c #EB536D",
"f  c #E5556B",
"g  c #FF5663",
"h  c #FF5B65",
"j  c #F4546E",
"k  c #FF536B",
"l  c #FF5C6B",
"z  c #EC4E75",
"x  c #F24E71",
"c  c #EB5373",
"v  c #EA5C76",
"b  c #EC5C7A",
"n  c #E85776",
"m  c #F55574",
"M  c #FA5575",
"N  c #F45975",
"B  c #FF5C72",
"V  c #F75779",
"C  c #F95678",
"Z  c #F45A7B",
"A  c #FB5A7B",
"S  c #FE6365",
"D  c #FF646D",
"F  c #FF6A6D",
"G  c #F96566",
"H  c #ED637B",
"J  c #EC687D",
"K  c #E36376",
"L  c #FF6473",
"P  c #FF6B74",
"I  c #F4637D",
"U  c #FE647A",
"Y  c #FF6B7B",
"T  c #F16B7A",
"R  c #FF7274",
"E  c #FF747B",
"W  c #FF7B7D",
"Q  c #FF7976",
"!  c #E8616E",
"~  c #FF827C",
"^  c #FA5680",
"/  c #F45E80",
"(  c #FC5C84",
")  c #F05581",
"_  c #ED6483",
"`  c #ED6B84",
"'  c #F36283",
"]  c #FB6583",
"[  c #F46A84",
"{  c #FF6C82",
"}  c #F46C8B",
"|  c #FC6C8A",
" . c #F7658B",
".. c #EB748B",
"X. c #EA7588",
"o. c #F47283",
"O. c #FE7382",
"+. c #FE7C83",
"@. c #F4738C",
"#. c #FD738B",
"$. c #F37B8C",
"%. c #FD7C8C",
"&. c #F37A86",
"*. c #FC6B94",
"=. c #ED7C93",
"-. c #FD7493",
";. c #F37B93",
":. c #FC7B94",
">. c #FF719B",
",. c #FE7C9B",
"<. c #F37695",
"1. c #FF7CA3",
"2. c #FF7EA9",
"3. c #FF77A2",
"4. c #FE8284",
"5. c #FF8B85",
"6. c #FE838B",
"7. c #FF8A8C",
"8. c #F7868B",
"9. c #FF928C",
"0. c #EC8C9B",
"q. c #ED8697",
"w. c #F48494",
"e. c #FD8592",
"r. c #FD8B94",
"t. c #F4829B",
"y. c #FB839B",
"u. c #F38B9C",
"i. c #FA8E9C",
"p. c #F28895",
"a. c #FF9394",
"s. c #F3939E",
"d. c #FF959A",
"f. c #FF9B9A",
"g. c #FB9998",
"h. c #ED979E",
"j. c #FFA59C",
"k. c #DF99AB",
"l. c #DF9CB2",
"z. c #EC8AA3",
"x. c #FD84A4",
"c. c #F38DA2",
"v. c #FE89A5",
"b. c #FF83AC",
"n. c #FF8AAB",
"m. c #F484A0",
"M. c #E49AAB",
"N. c #EB96A7",
"B. c #F494A4",
"V. c #FC94A3",
"C. c #FB9BA3",
"Z. c #FC93AC",
"A. c #F29BAA",
"S. c #F598A8",
"D. c #FF8DB4",
"F. c #FF8DB8",
"G. c #ED9DB2",
"H. c #FF93B6",
"J. c #FF95BB",
"K. c #FF9BBD",
"L. c #F69DB4",
"P. c #CCA9BF",
"I. c #DCA6BA",
"U. c #FFA2A3",
"Y. c #FBA7AB",
"T. c #FDB2AA",
"R. c #ECABBC",
"E. c #E9A6B7",
"W. c #F2A4B5",
"Q. c #FFA1BE",
"!. c #F6A8B7",
"~. c #EEB0BB",
"^. c #FEC5BE",
"/. c #FF9EC2",
"(. c #FF95C1",
"). c #CEABC2",
"_. c #D2AEC5",
"`. c #D3AFC8",
"'. c #DDAEC1",
"]. c #D3B1C6",
"[. c #D5B2C9",
"{. c #D9B6CC",
"}. c #DBB9CE",
"|. c #DEBBD1",
" X c #DDB7D0",
".X c #FFA5C5",
"XX c #FFA8C6",
"oX c #FFA6C8",
"OX c #FFABCA",
"+X c #EEB3C3",
"@X c #E5B6CB",
"#X c #EBBBCC",
"$X c #E7B8CB",
"%X c #FFB2CC",
"&X c #FFBBCE",
"*X c #FFB0C5",
"=X c #E1BDD3",
"-X c #E1BED2",
";X c #E2BED4",
":X c #E2BED5",
">X c #E4BFD6",
",X c #E6BED5",
"<X c #E3BED5",
"1X c #E9BFD4",
"2X c #FFB4D0",
"3X c #FFBBD3",
"4X c #F3ADCA",
"5X c #E9C0CF",
"6X c #FFCFCC",
"7X c #E2C1D5",
"8X c #E4C2D6",
"9X c #E6C6D7",
"0X c #E5C5D7",
"qX c #E4C2D6",
"wX c #EAC3D4",
"eX c #E7C6D8",
"rX c #E6C4D8",
"tX c #E6C4D9",
"yX c #E8C7DA",
"uX c #E8C7D9",
"iX c #E8C7DA",
"pX c #E8C8D9",
"aX c #E9C9DA",
"sX c #E9C9DB",
"dX c #E9C8DB",
"fX c #E9CADB",
"gX c #EACADB",
"hX c #EAC8D9",
"jX c #EACBDC",
"kX c #E9CADC",
"lX c #E9C9DB",
"zX c #E7C8D8",
"xX c #FFC2D6",
"cX c #FFC9D5",
"vX c #FFC3D9",
"bX c #FFDBD7",
"nX c #F8D0C8",
"mX c #FFCCE0",
"MX c #FFE9E4",
"NX c #FFE2E0",
/* pixels */
"_.].]._.[._._.[.[._._.].].].]._.[.dXdXdXqX[.:X,X,X:X_.qXdXyXjX}._.[.].].[._._.`.[._._.[.].[.]._.{.dXdXdXqX].:X,X:XtX_.7XkXeXdX{.",
"{.dXkXdXqX[.|.tX:X=X[.|.dXdXdX|.{.dXkXdX8X[.|.8X,X=X_.qXdXkXkX}.[.dXkXdX:X[.|.tX:X=X[.:XdXkXyX|.}.dXkXkX0X[.|.,X:X:X_.8XjXdXkX}.",
"{.dXkXkXyX[.=X=X:X:X_.=XdXdXjX}.[.qX8XqX|.[.}.:X=X}._.}.qXtX8X[.}.kXyXdXeX[.=X=X:X:X_.qXkXdXkX}.[.qXtXqX|._.}.=X=X X_.|.8XqX8X}.",
"[.dXeXdXeX_.=X:X:XqX[.7XdX0XdX}._.].).).[.[._._._.].[.].)._.]._.[.kX0XdX8X_.:X:X:X:X_.qXdX0XdX}._.]._.).].[._._._.]._.[.).).[._.",
"{.dXkXdXeX_.:XtX,X:X[.=XdXdXkX}.[.eXdX0XeXyX0XdXdX0XeXeXyXdX0X}.[.kXdXdX8X_.:XtXtX:X[.qXdXdXkX}.{.eXkXeX0XeX0XdXdXyX0XeXdXdXeX{.",
"}.eXkXeXeX[.=X:X,X=X[.|.dXdXdX}.[.dXdX0XdXkX0X0XeX0XkXdXeXdXdX|.}.dXeXdX8X[.=X:X>X=X[.:XdXdXdX}.[.dXdX0XdXkX0XeX0XdXdXdXeXdXdX}.",
"}.dXkXdXyX_.:XtX8X,X{.7XdXdXdX|.}.kXdXyXdXdXdXkXkXyXkXyXyXdXkX|.{.dXdXdX8X].:XtX,X8X[.8XdXdXdX}.{.kXkXdXyXkXdXdXkXdXkXyXyXdXkX|.",
"}.dXdXyXeX_.=X:X:X:X_.|.dXeXkX}.[.kXyX0XdXkXdXdXdX0XdXdXdXdXdX{.}.dX0XyX8X_.=X:X:X:X_.=XdXeXkX}.[.kXkX0XdXkX0XyXdXdXdXdXdXeXdX}.",
"}.dXdXdXeX[.=XtX,X<X[.=XdXyXdX}.[.dXeXyXdXyXeXyX0XyXdX0X0XdXdX{.}.dXdXdXeX_.:X,X,X:X[.qXkXdXdX}.[.dXdXyXdXdXyXdXeXdXdXeXyXdXdX}.",
"}.dXdXdXeX[.=X,Xp.W 4.B.+XyXdX}.).[.)._.[._._.[.[.[.[.[._._.}._.}.dXdXdXeX_.:X,X,X:X[.qXkXdXdX}.).}._._._.k.0.8.e.M._.]._.).[._.",
"}.dXdXdXeX[.=XR.4.#.:.:.e.i.W.}.[.8X|.=X:X|.=X:X=X:X:X=X=X|.8X[.}.dXdXdXeX_.:X,X,X:X[.qXkXdXdX}.[.tX=XE.8.4.+.%.+.8.:X:X=X=X8X}.",
"}.dXdXdXeX[.=XM.6.H./.H.#.+.7.p.'.dXdXdXdXdXdXdXzXdXdXzXdXdXdX[.}.dXdXdXtX_.:X,X,X:X[.qXkXdXdX}.[.~.4.7.,.x.K.K.x.e.dXdXdXdXdX{.",
"}.dXdXdXeX[.=XE.4.H./.3XXX.Xn.6.R S.#XdXdXdXdXyXyXwX#XR.W.W.B.&.o.+.B.Y.W.k.E.@X<X:X[.qXkXdXdX'.0.%.e.v..X%XOXJ.n.8.dXdXdX0XdX}.",
"}.dXdXdXeX[.=XR.6.H.J.%XJ.H.J..Xy.O.%.R.dXwXR.s.r.P g R d.6Xg.6.Y ~ 4.nXY.6.D D O.w.M.1XkXdXS.+.E V.K.J.J.OX.XK.,.a.dXeXeXyXdX}.",
"}.dXdXdXeX[.=X#X+.H.D.J.J.H.J.J.Q.] l l +.D D g.T.a.6.W r.MXf.h f.R E bXY.O.6.F 6.7.Y D e.8.l h -..XF.H.H.J.J./.,.C.dXdXdXkXdX}.",
"}.dXdXdXeX[.=XtX6.v.J.J.J..X.XQ.#.g L R F L 7.6.bXY E Y l O.L D P L B L L l 7.E 4.NXa.E g 5 g g U Z..X.XJ.J.J.K.-.A.}.}.{.[.}.].",
"[.dXdXdXeX_.,X:Xr.y..XvXOXZ.{ 5 g h 7.^.6.4.R B Y U P Y O.{ L B L U U Y Y P L l L i.h r.4.7.d.R h k A :.XX*XOXK.O.M._.].].[.].].",
"[.kXdXjXyX].=X:XB.%.*X3XQ.B 5 5 h R 4.MXe.g { { #.{ A s i a a N C x q * , s k U Y { l +.h Y.bX8.L g 5 5 y.3X3XH.4.R.{.8XdXkXdX|.",
"[.tX:X8X|._. X=XG.#.K.XX{ g P r.6.7.L U U P U B k x m V V V m V V C C y 0 0 0 0 s k U { L O.4.D %.D P l l V.OX,.6.@X_.qXdXdXkX}.",
"_.[.P._._._.]._.I.E | ] g g 7.6X+.l { { B 3 y j V V V V V V j V Z Z / V 0 0 0 0 > : , s A { U L d.E T.a.h l #.| &.<X_.8XdX0XdX}.",
"{.yXdXdX8XeXeXdXwXO.5 5 l F E O.L Y B < % y <.*.^ V N V V V V  .x.@.' U r 0 0 q m N Z c > 1 L #.L R MXr.+.6 g l c.:X_.qXdXyXdX}.",
"[.dXdXdXdXkXdX0X0X#.5 W r.4.E D U s 0 0 s Z c.A.` C V V V V C ' Z.V.I } t 0 0 m -.y.' Z V y , k { l Y h R g g g R.:X[.qXdXdXdX|.",
"}.kXkXdXkXdXdXkXR.g E j.^.B { k * 0 0 0 e ` B.$.' C C C C V V I V.t.] | t * q @.=.S.-.C V V m , 3 { { l 6.W W D $X=X[.qXdXyXdX|.",
"{.kXdX0XdXdXeXR.U D 9.D O.B s y c y 0 0 y [ x.Z C V Z ' V V V N H Z ] #.: 0 c o.y.w.[ V V V V N y r A P L U.T.P $.$X_.qXdXyXkX|.",
"}.dXdXdXdXdX#XL E 7.W Y B 1 a V Z ] j 0 r Z } Z V Z | ;.' V C V C M } @., > _ [ ' / V C V V V C j e : l Y O.D P h A._.8XdXdXdX}.",
").[.)._._._.o.4 d.^.Y l e m V V Z m Y f > d :.Z V V ;.G.;.N V V V C ;.[ : q ` ] V V V V m M Z Z C C q , l Y L 4.E P I.8XdXdXdX}.",
"[.8X|.|.=XB.h S +.U B q j V V V V / _ ;.r , ' @.Z V } c.J V V V V V ;.b % y $.] C V V N V / ;.v./ V x 0 = k #.L Y.U.&.7XdXdXdX}.",
"[.dXdXdXwXO.a.+.E B q Z V V V V m #.t.Z.n = m ;.Z V V Z V C V V V C t.v % y $.I V V V V Z ' c.S.} V C 0 0 q B Y C.4.P R.dXdXdX}.",
"}.dXdXdX8.E U.6.L 1 V  ./ V V V m [ A.z.X.* q [ <.C C V V V A ] C Z t.n : c ;./ I m C V V Z :.@.' ] c 0 0 0 = A { D +.E wXdXdX}.",
"[.dXdX+Xh E L { - y } L.i.V V V V Z o._ w.q > c w.Z V V V V y.c.I ' ;.t @ c ;.` B.` V V V V V V ' [ q 0 0 q q - L L C.d.W.dXdX}.",
"[.kXkXw.j.E Y 3 0 y | z.t.V V V V C M C ;.n o > J t.Z V V N c.S.I y.b > @ m q.=.C.:.V C V V V Z #.d > 0 v #.@.y 1 Y O.W %.dXdX}.",
"].|.I.R e.O.B 0 0 * a -.J V V C V m C C @._ o o y q.#.Z V N w.' } z.y % + y ;.t.[ N C V C V N [ J 0 ; v @.$.!.$.w p { P P #XdX}.",
"].].0.S L Y 1 X.c.K 0 y #.H C | m._ V Z X.H o . > n ..t.[ / Z @.v.b 0 @ + > ! t./ C M m C ' t.o.w @ w %.Z V ' V m r U P 7.S.dX}.",
"}.dX+.9.{ U e V.!.N.` : d y.Z @.E.q.V N w.c $   + t z ' i.B.Z.$.v 0 > + X 0 w J B.=.@.<.t.x._ w @ + v $._ V V m V c p L P w.kX}.",
"[.wXL P Y L a i e d $.` > H y.` =.@._ y.$.w +     o > w y c d t 0 > @     $ > w v ` X.X._ t > @ X ; $.S.u.;.@.I N y - { +.#.@X[.",
"}.A.g h L Y Y L U l 1 =.f : v w.t.z.c.J t ;         X # % & & @ @ X O O + + # # # @ @ & & @ X   X 9 u.s.p.I B L U B L { L D E._.",
"{.$.g l L D h D P U Y i [ + > e c d t 0 > u )  .>.1.1.b.x.1.,.>.>.-.1.b.J.K.J.J.H.n.2. .t O     @ ..A.X.A U U Y Y P P L l 5 W.}.",
"}.P h L h S P P D Y L l j 8 + & 0 % % n -.D..X.X.X.X.X3XxX.X.X.X.X.X.X.X&XcX.XoX.X.X.X3X*X-.8 O + p.h.M U D P P L L h h g 2 B.}.",
"}.D +.O.5.6.l g F S E L B > + X + 0 3.*XxX.X.XXXXX.X.XOXOX.X.X.X.X.XOXOX.X.XoXOX.X.X.XOX2XoXJ.( $ H Z Y F P D Y Y L W F D 6 8.|.",
"{.D 7.O.6 R k k h P D E Y i + X z J.%X3X2X.X.XOX.XXX.X.XXX2X3XOX.XXX.X.X.XXX3XmX.X.X.XOX.X.X.X.X] s D Y P S E l h 5 7.a.6.W p.}.",
"{.h P L R h g P h g 6.L E B @ u J.OX.X.X.X.X3XcXOXOX.X.X.XOXvXoX.X.X.X.X.X.X%X3X.X.X.XoXoX.XOXOXJ.L l E D E h 5 g 5 +.D R R u.{.",
"}.D h L P 5 g 9.7.7.+.+.R E M D.OX.X.X.X.X.X.XXX.X.X.XXXOXXX.XXX.X.XXXOX.X.X.XoX.X.X.XOX%X%X.XOXH.L E L W P Y 6.L p P L O.5 0._.",
"}.O.l 2 B g g R D W g P F 6.#./..XOXxX&XXX.X.X.XOX.X.X.X.X.X.XXX.X.X3XcXOX.XXX.XXXXX.X%XxX&X.XJ.#.F F E S 7.6.W D 5 l D l g R.}.",
"}.w.g h 4.d.B B O.D 5 l +.P E n.Q.K.XX3X.X.XOX.X.X.X&XvX.X.X.X.XXXoXOXOXOXXX.XQ.OX.XJ.J.J./..Xn.l W l R g Y P E l g h k 4 L #X[.",
"}.R.h 6.4.R g g h 4 h g P S W ,.J.J..X.XXX.XQ..XoX.XOX%X/././..X.XXXXX.XJ.J.J.J.J.K..X/.J.J.n.{ +.D +.h 5 g P L g +.7.P 4 O.yX|.",
"}.wXL E +.E g g a.R 6.+.5 4.E %.H.J.J.J.J.J.K..XOX.X.XXXXXOX.X.X/.J.J.J.J.H.J.J.J.J.J.J.J.J.:.D E R E h g g l g l E P 4.6.s.dX}.",
"}.dXu.5 h L 5 h 4.+.T +.g +.D %.n.J.J.J.J.J.J.J.J.(.J.J.J.(.J.J.J.J.J.J.J.J.J.J.J.J.J.J.J.H.{ R L W g 7.4.4.j.h l P E 6.h +XdX{.",
"}.dX+Xl p 5 D l F 6 W D g g 6.+.k x ( >.2.D.H.J.J.J.J.J.J.J.J.J.J.J.J.J.J.J.J.J.J.J.J.D.b.-.P +.P P 5 W D P +.g 5 5 l B #.].}.[.",
"[.yXdXu.5 4 7.W l Y D l g l +.R W g i , r a x ^ ( *.-.2.b.D.D.H.H.H.D.n.1.2.3.>.( ^ x a a p Q P e.5 l h R D F l W l 4 5 M.{.{.[.",
"[.dXkXwX6.a.P W h g g d.E 4 R D L %.7.a.4.h 2 3 < , : * * * 0 q q r r u 0 < 1 i p 7 F 7.a.4.P h %.Y f.P l E l F W e.6 &.yXkXdX:X",
"].|.}.|.E.+.R P 5 5 P P 4.P l +.+.W P D Y +.W 6.6.6.+.+.Y P G G G G S R +.6.6.6.W +.O.L P E +.+.E W +.+.h h l Y D W C.@XdXdXdX}.",
"_.}._.].[.M.h g 4 g +.5 D V.F 5 E D U.E W +.%.4.E D h S D D P P P P P P D h P W 6.4.+.a.r.P 5 6 7.Y h E h g 5 D R 8.I.8XdXeXdX}.",
"}.dXdXdXdXkX#Xu.L g Y +.+.D g 6 d.e.~ h h W 7.G D E +.6.8.8.7.a.d.7.4.+.4.E R Y f.+.h +.W 9.6.5 l +.+.P g 5 D B.@X:X_.qXdXdXdX}.",
"[.dXdXeXeXdXdXeXwXR.p.E h g g h W P R g g R R 7.6.l D E 7.7.l l 6.r.+.+.l 6 5.5.E E 5 F P W D g g l L #.B.l.,X>XtX:X`.8XdXdXjX}.",
"}.kXkXyXdXdXkXdXdXdXdXwX#XR.B.o.D L g 4 g P P +.h g D W F E g h Y P W R g g 6 +.P D g l P L P $.0.R.#XdX8X[.:X:X,X:X[.8XdXdXdX}.",
"[.kXdXdXkXeXdXdXdXdXdXdXdX0XjX}.}.5XR.A.u.$.#.P L L l F E P l g h O.O.L L L D F r.8.s.W.+X5XkX[.}.dXyXdXqX_.=X,X:X=X[.qXdXdXdX}.",
"}.eXeXeXtXyXyXtXeXeXeXeX0XeXyX}.}.dXdXdX0X].:X$X+XR.M.G.W.L.S.N.z.L.W.W.R.+X#X1X8XyXeXqX0XeXeX{.}.dXdXdXqX].=X,X,X:X_.8XdXdXdX}.",
").].)._._._.).)._.)._._.).P.].).}.dXdXdX0X_.:X:X:X8X[.qXdXyXdX|.).[._.].]._._.].]._._.]._.).[.).}.dXyXdXqX[.=X,X,X:X_.8XdXdXdX}.",
"[.tXqXqX8XqXqXqX8XtXeXtX8X8XyX}.}.dXdXdX0X_.:X:X:X8X[.qXdXyXdX}.}.kXyXyXdXkXyXdXdXyXkXkXyXyXkX|.}.dXyXdXqX[.:X,X,X:X_.8XdXdXdX}.",
"].dXdXdXdXdXdXdXdXdXdXyXdXdXdX{.}.dXdXdX0X_.:X:X:X:X[.qXdXyXdX}.].dXdXeXdXdXdXdXdXdXdXdXeXdXdX[.}.dXyXdXqX[.:X,X,X:X_.8XdXdXdX}.",
"{.dXyXyXdXdXyXyXdXdXdXdXdXeXdX|.}.dXdXdX0X_.:X:X:X:X[.qXdXyXdX}.[.kXdXeXdXdXeXdXdXeXdXdXeXeXkX}.}.dXyXdXqX[.:X,X,X:X_.8XdXdXdX}.",
"[.dXdXdXdXdXdXyXdXyXyXyXdXyXdX}.}.dXdXdX0X_.:X:X:X,X[.qXdXyXdX}.[.kXdXeXdXdXdXdXdXdXdXyXeXdXdX{.}.dXyXdXqX[.:X,X,X:X_.8XdXdXdX}.",
"[.dXdXdXeXdXdXyXdXdXdXdXdXdXdX}.}.dXdXdX0X_.:X:X:X,X[.qXdXyXdX|.].dXdXeXeXkXdXeXeXdXdX0XeXdXdX{.}.dXyXdXqX[.=X,X,X:X_.8XdXdXdX}.",
"_.}.[.{.{.[.{.{.}.[.}.}.{.[.}._.}.dXdXdX0X_.:X:X:X,X[.qXdXeXdX|.`.}.].[.[.[.[.[.[.[.[.[.[._.[._.}.dXdXdXqX].=X,X,X:X_.8XdXdXdX}."
};
