/* XPM */
static char *_bd3217e11ef45e9ee74382667001e02TMqHnI8X4HGr2ijm[] = {
/* columns rows colors chars-per-pixel */
"64 64 256 2 ",
"   c #960603",
".  c #8B1100",
"X  c #9D0513",
"o  c #8E0F00",
"O  c #B50E0C",
"+  c #B7140C",
"@  c #A70615",
"#  c #AA1619",
"$  c #B71816",
"%  c #AD0C11",
"&  c #973500",
"*  c #9D2700",
"=  c #B52C18",
"-  c #9D1A25",
";  c #AA1A23",
":  c #B91829",
">  c #AC2625",
",  c #B42826",
"<  c #BC3A26",
"1  c #AE2E36",
"2  c #992F3C",
"3  c #C51B1C",
"4  c #C81817",
"5  c #D31E1C",
"6  c #C3130B",
"7  c #C73815",
"8  c #D83D16",
"9  c #D6291A",
"0  c #CD1B24",
"q  c #C82626",
"w  c #D52423",
"e  c #DB2428",
"r  c #C53A25",
"t  c #CF3031",
"y  c #E42B2C",
"u  c #E93836",
"i  c #F33A39",
"p  c #E3302F",
"a  c #974100",
"s  c #B34D12",
"d  c #BC4128",
"f  c #BB4238",
"g  c #B85B31",
"h  c #BE6D25",
"j  c #CB4617",
"k  c #D54614",
"l  c #D6571C",
"z  c #C85312",
"x  c #E2541C",
"c  c #D7641D",
"v  c #D2630B",
"b  c #C64429",
"n  c #C75623",
"m  c #D95626",
"M  c #C8493A",
"N  c #D85B35",
"B  c #DA4930",
"V  c #EA552C",
"C  c #EB433D",
"Z  c #F4443E",
"A  c #EB5939",
"S  c #F65B39",
"D  c #E54C2B",
"F  c #D9672A",
"G  c #D77E25",
"H  c #DA6634",
"J  c #D17030",
"K  c #EB682D",
"L  c #E77629",
"P  c #EA6739",
"I  c #F3663A",
"U  c #E77534",
"Y  c #F57A3A",
"T  c #F1692E",
"R  c #E06E1E",
"E  c #A73845",
"W  c #9E3544",
"Q  c #E63C45",
"!  c #B74942",
"~  c #B24E52",
"^  c #B75763",
"/  c #AF5361",
"(  c #BC6776",
")  c #BC6D6B",
"_  c #B8625A",
"`  c #D2504C",
"'  c #F44746",
"]  c #F8594A",
"[  c #E44D57",
"{  c #EB5457",
"}  c #FB5857",
"|  c #E74C48",
" . c #D96C53",
".. c #E76543",
"X. c #F66441",
"o. c #F86848",
"O. c #E97746",
"+. c #FD7747",
"@. c #FE635A",
"#. c #F66C58",
"$. c #F17056",
"%. c #CE5B65",
"&. c #F35C62",
"*. c #D06F73",
"=. c #E76565",
"-. c #F76767",
";. c #FB7669",
":. c #FB6C74",
">. c #EC7878",
",. c #FD7C72",
"<. c #FD757D",
"1. c #F67775",
"2. c #E8706E",
"3. c #D99426",
"4. c #D78A36",
"5. c #E98829",
"6. c #E7873B",
"7. c #F5833C",
"8. c #F8893B",
"9. c #E99736",
"0. c #FB943C",
"q. c #F7993B",
"w. c #EA902A",
"e. c #D7A62A",
"r. c #ECA63B",
"t. c #FCA33C",
"y. c #F4A63C",
"u. c #F0B33E",
"i. c #D28A5B",
"p. c #FE8A4C",
"a. c #FB8646",
"s. c #EC9A46",
"d. c #FC9344",
"f. c #FE9B4D",
"g. c #FC9945",
"h. c #FB8B57",
"j. c #FB9755",
"k. c #E68949",
"l. c #FEAE4C",
"z. c #FBA846",
"x. c #F8B647",
"c. c #FEA757",
"v. c #FEBB53",
"b. c #FEB45B",
"n. c #FEB95A",
"m. c #E8B344",
"M. c #D68776",
"N. c #FF9E64",
"B. c #FA8678",
"V. c #F68973",
"C. c #FFB769",
"Z. c #FFB16D",
"A. c #FEC454",
"S. c #FFC45B",
"D. c #FAC956",
"F. c #ECD652",
"G. c #FDD45B",
"H. c #F7D457",
"J. c #F3C44B",
"K. c #FAE45D",
"L. c #FAEC5E",
"P. c #F8FF5B",
"I. c #FFCB64",
"U. c #FFC666",
"Y. c #FFDC64",
"T. c #FFD66A",
"R. c #FFCD74",
"E. c #FFD773",
"W. c #FEE365",
"Q. c #FFEB6A",
"!. c #FBEB63",
"~. c #FFF165",
"^. c #FEFC63",
"/. c #FFF66B",
"(. c #FFF96B",
"). c #F6FD68",
"_. c #FFE775",
"`. c #FFFC75",
"'. c #FFF479",
"]. c #C57A87",
"[. c #D77A84",
"{. c #C67C91",
"}. c #E27A85",
"|. c #FD7C82",
" X c #D7848B",
".X c #C68796",
"XX c #D78B9A",
"oX c #CD929C",
"OX c #D39191",
"+X c #E78386",
"@X c #FC8384",
"#X c #FA8987",
"$X c #FC9688",
"%X c #FB8D93",
"&X c #FF959B",
"*X c #FC9997",
"=X c #E48F95",
"-X c #DEA39B",
";X c #FFA58B",
":X c #FDA399",
">X c #E1A394",
",X c #D398A8",
"<X c #CC98AA",
"1X c #EB9DA8",
"2X c #D8A8B9",
"3X c #D2A8B8",
"4X c #FFAAA7",
"5X c #E4A9B8",
"6X c #F2B1B6",
"7X c #FFFF88",
"8X c #FFC2B6",
"9X c #CEABC2",
"0X c #D2AEC5",
"qX c #D3AFC8",
"wX c #D9AEC2",
"eX c #D4B1C6",
"rX c #D5B2C9",
"tX c #D9B6CC",
"yX c #DBB9CE",
"uX c #DBB1C4",
"iX c #DEBBD1",
"pX c #DCB7D0",
"aX c #E5BCCC",
"sX c #E5B5C7",
"dX c #E1BDD3",
"fX c #E2BED4",
"gX c #E2BED5",
"hX c #E4BED6",
"jX c #E2BED5",
"kX c #E5BFD8",
"lX c #FFB8C2",
"zX c #E2C1D5",
"xX c #E4C2D6",
"cX c #E6C6D7",
"vX c #E4C3D6",
"bX c #E8C4D4",
"nX c #E5C1D8",
"mX c #E7C6D9",
"MX c #E6C4D8",
"NX c #E6C5D8",
"BX c #E8C7DA",
"VX c #E8C7D9",
"CX c #E8C7DA",
"ZX c #E7C8D8",
"AX c #E9C9DA",
"SX c #E9C9DB",
"DX c #E9C8DA",
"FX c #E9CADB",
"GX c #E9CADA",
"HX c #EACADB",
"JX c #EACBDB",
"KX c #E8C8D9",
"LX c #EACBDC",
"PX c #E9CADC",
"IX c #E9C9DB",
"UX c #FFC8C5",
/* pixels */
"0XeXeX0XrX0X0XrXrX0X0XeXeXeXeX0XrXDXDXDXxXrXhXhXhXhX0XxXDXBXLXyX0XrXeXeXrX0X0XqXrX0X0XrXeXrXeX0XtXDXDXDXxXeXhXhXhXnX0XzXPXmXDXtX",
"tXDXPXDXxXrXiXnXhXdXrXiXDXDXDXiXtXDXPXDXvXrXiXxXhXdX0XxXDXPXPXyXrXDXPXDXhXrXiXnXhXdXrXhXDXPXBXiXyXDXPXPXvXrXiXhXhXhX0XxXLXDXPXyX",
"tXDXPXPXBXrXdXdXhXhX0XdXDXDXJXyXrXxXxXxXiXrXyXhXdXyX0XyXxXnXxXrXyXPXBXDXmXrXdXdXhXhX0XxXPXDXPXyXrXxXnXxXiX0XyXdXdXpX0XiXxXxXxXyX",
"rXDXmXDXmX0XdXhXhXxXrXzXDXvXDXyX0XeX9X9XrXrX0X0X0XeXrXeX9X0XeX0XrXPXvXDXxX0XhXhXhXhX0XxXDXvXDXyX0XeX0X9XeXrX0X0X0XeX0XrX9X9XrX0X",
"tXDXPXDXmX0XhXnXhXhXrXdXDXDXPXyXrXmXDXvXmXBXvXDXDXvXmXmXBXDXvXyXrXPXDXDXxX0XhXnXnXhXrXxXDXDXPXyXtXmXPXmXvXmXvXDXDXBXvXmXDXDXmXtX",
"yXmXPXmXmXrXdXhXxXdXrXiXDXDXDXyXrXDXDXvXDXPXvXvXmXvXPXDXmXDXDXiXyXDXmXDXxXrXdXhXkXdXrXdXDXDXDXyXrXDXDXvXDXPXvXmXvXDXDXDXmXDXDXyX",
"yXDXPXDXBX0XhXnXxXxXtXzXDXDXDXiXyXPXDXBXDXDXDXPXPXBXPXBXBXDXPXiXtXDXDXDXxXeXhXnXhXxXrXxXDXDXDXyXtXPXPXDXBXPXDXDXPXDXPXBXBXDXPXiX",
"yXDXDXDXmX0XdXhXhXhX0XiXDXmXLXyXrXPXBXvXDXPXDXDXDXvXDXDXDXDXDXtXyXDXvXBXxX0XdXhXhXhX0XdXDXmXPXyXrXPXPXvXDXPXvXBXDXDXDXDXDXmXDXyX",
"yXDXDXDXmXrXdXnXhXdXrXdXDXDXDXyXrXDXmXBXDXBXBXBXvXBXDXvXvXDXDXtXyXDXDXDXmX0XhXhXhXhXrXxXPXDXDXyXrXDXDXBXDXDXBXBXmXDXDXmXBXDXDXyX",
"yXDXDXDXmXrXdXnXhXdXrXdXDXDXDXyX9XrX9X0XrX0X0XrXrXrXrXrX0X0XyX0XyXDXDXDXmX0XhXhXhXhXrXxXPXDXDXyX9XyX0X0XeX0X0XeXeX0X0XeX0X9XrX0X",
"yXDXDXDXmXrXdXnXhXhXrXdXDXBXDXyXrXxXiXdXhXiXdXhXdXhXhXdXdXiXxXrXyXDXDXDXmX0XhXhXhXhXrXxXPXDXDXyXrXnXdXiXdXhXhXxXdXhXhXhXdXdXxXyX",
"yXDXDXDXmXrXdXnXhXhXrXdXDXBXDXyXeXDXDXDXDXDXDXDXZXDXDXZXDXDXDXrXyXDXDXDXmX0XhXhXhXhXrXxXPXDXDXyXeXDXJXDXDXDXDXDXDXDXDXDXDXDXDXtX",
"yXDXDXDXmXrXdXnXhXhXrXdXDXmXDXyXyXDXvXDXDXDXDXBXDXDXDXDXDXDXDXiXyXDXDXDXvX0XdXhXhXhXeXxXPXDXDXyXyXDXDXDXDXDXBXBXDXDXDXDXDXvXDXyX",
"yXDXDXDXmXrXdXnXhXdXrXdXDXmXDXyXrXDXBXBXDXBXDXBXDXDXDXBXBXDXDXyXyXDXDXDXmX0XdXhXhXhXrXxXPXDXDXyXrXDXDXmXmXDXDXBXBXDXDXmXmXBXDXyX",
"yXDXDXDXmXrXdXnXhXdXrXdXDXBXDXyXrXPXDXDXDXDXDXPXDXDXDXDXDXJXPXyXyXDXDXDXmX0XdXhXhXhXrXxXPXDXDXyXtXPXJXDXDXPXPXDXDXPXDXDXDXPXDXyX",
"yXDXDXDXmXrXdXnXhXdXrXdXDXBXDXiX0XyXrXyXyXtXtXyXyXyXyXyXyXrXyX3XwXaXaXcXmX0XhXhXhXhXrXxXPXPXPXyX0XiXrXyXyXyXtXyXyXtXyXyXtXrXyXeX",
"rXDXDXDXmX0XhXhXhXdXeXiXPXBXDXyX0XrXrX0XrX9X0XrXrX0X3X<XoX X*.>.[.}.}.}. XXX5XfXhXxX0XxXDXmXDXyX0XeXeXeXeX0X0XrXrX0X0XeXeXrXeXeX",
"rXPXDXLXBXeXdXhXhXdXrXdXLXPXDXyXyXPXPXDXBXrXdXsX1X X*.+X*X:X4X6XlX6X4X&X1.=.=.>.=XsX0XxXPXPXPXyXyXPXPXPXnXrXiXnXnXdXtXxXDXPXDXiX",
"rXnXhXxXiX0XpXdXdXyXqXyXxXnXxXtXrXPXDXDXfX,XXX*. X*X4XUX4X4X*X%X&X&X&X&X%X#X,.#.] -.+XuXxXnXnXrXyXPXmXDXxX0XhXdXhXdX0XxXDXDXPXyX",
"0XrX3X0X0X0XeX0X0X0XrX0X9X0XeX0XtXJXxX5X}.>.&X6X8X:X*X*X&X&X%X%X@X|.1.2.,.B.;.$.#.o.] =.,X3XqX9XtXDXvXDXxX0XxXnXhXhX0XxXDXvXDXyX",
"rXBXDXbX2X2X5XaXBXvXmXvXDXPXmXyXrX5X2.-.,.#X*X:X+X#X#X#X@X<.<.@X;.;.-.$.....P P N N N H O.i.i.i.M.>X5XDXxX0XdXhXhXhX0XxXDXBXDXyX",
"rXBX5X>.>.1.>.+X+X1XbXDXDXBXDXyXXX{ :.;.,.B.B.,.1.1.1.1.-.;.-.| $...N n F F U 6.j.j.c.C.b.l.m.x.9.9.6.i.-XwXhXhXnXhXrXxXDXDXDXiX",
"yX5X .,.$X;X;X;XV.V.M.-XbXDXPXsX=.{ ,.,.;.;.@.@.@.@.#.#.$.$...b n J k.z.b.n.I.T.I.I.I.I.T.D.G.Y.'.'.E.n.4. .-XnXhXhXrXxXDXBXDXiX",
"tX=X..$XB.$X$X$X$X:X:XB.*.5XDXtXXX` | #.;.;.@.] ] I P P n n U j.c.b.U.I.S.D.D.D.J.H.Y.W.W.'.'.`.`.).`.7X_.l.4.OXhXhX0XxXDXBXPXiX",
"yX+X .8X$X#X@X1.@X@X*X*X*X%.[.wXyX5X=.B o.] ] S K z c c s.b.R.R.n.l.S.v.S.D.D.J.F.F.K.`././././.^.).^.(.`.'.D.4.M.dX0XxXDXPXDXyX",
"9X XM $X@X|.<.:.-.<.|.>.&X&X=.%.2XDXbX=XN D D l z 5.z.E.T.S.m.m.x.y.l.v.A.A.J.J.F.!./.(./././.^.P.P.P.^.(.`.Q.D.h OX0XxXDXPXDXyX",
"tX5X` { :.:.:.:.2.=.{ -.-.<.&X=.%.aXDXDXOXd j 7.y.G.A.r.m.x.x.v.x.z.9.r.x.x.x.J.W./.`././././.^.P.P.^.^./.!./.'.n.g oXxXDXDXDXyX",
"rXDX[.t @.-.-.-.-.-.&.} Q { =.*X| *.5X*.n K f.n.A.e.u.J.u.u.x.x.z.v.y.y.3.r.x.D.`.(./.(./././.^.^.^././.'.Q.~.~._.9.g aXDXDXDXyX",
"yXDXfX%.e } } { { } } } ' | t } ,.< < N j.b.n.v.e.e.G.u.u.x.t.l.z.t.q.q.w.3.3.D././././././././.~.Q.E.I.E._.~.L.Q.E.s OXDXPXDXyX",
"rXDXDXsX` 0 } ] C ' ' ' } @.] C r = O.N.Z.c.z.v.m.3.r.y.y.t.l.w.5.5.w.9.9.r.y.G.Q.~.~.~.~.~.~.Q.Y.4.a & s U.Y.K.W.E.J _ cXcXDXyX",
"rXPXPXDXsX%.4 Z Z i u u u u ' Z 7 U j.j.c.c.s.9.9.G G 5.g.0.0.v 0.0.0.z.t.y.y.Y.W.!.!.L.L.L.L.W.n.& o . . n E.Y.I.R.$.> %.^ XXyX",
"qXiXrXyXiXwX%.3 y i i u Z Z ' 9 j c.f.f.c.6.G 6.8.d.7.L L L R L f.g.0.0.0.q.q.I.Y.K.K.K.K.K.K.Y.s.* o   o s C.I.C.Z.V., [ :.1 {.",
"0XeXrX0XrX0X0X^ 6 y y 5 w y e 6 8 p.k.f.Y c d.6.d.7.7.7.Y L c c d.8.8.8.8.8.d.U.G.G.G.G.G.H.H.G.b.& . o * H C.Z.;X2.> <.<.[ : ( ",
"yXDXPXPXmXrXXX, 5 y p w 5 w 5 4 + I p.a.T x 7.7.a.7.a.7.U F l z l U Y 7.Y Y 7.c.S.A.A.A.A.A.A.S.b.6.s s H N.N.h.` > ` :.[ 1 ; {.",
"rXDXDXDXmX.X, 3 w e w 3 4 4 4 5 6 7 o.+.+.l m Y U Y Y F l F U U l k k K T Y T a.c.l.l.l.l.l.l.l.g.c.z.f.c.h.O.= # t t t : ; ( 0X",
"yXDXmXDX2X1 $ 3 0 4 + O $ O 6 w C % t A o.X.m j m P K j P P P P +.I V k k x k l f.f.f.f.f.f.f.f.d.g.0.0.d.O.* % t 0 : % X - <X9X",
"tXDXDXvX^ # $ q 3 $ + + O + w } t *. Xf r D o.X.m m j 7 P P P I V S S S 8 8 8 k m +.j.p.p.p.p.p.a.8.8.8.p.h.M   % @ @ @ @ @ oXyX",
"yXDXPX,X- # $ 3 3 + + + q | ' q ^ vXDXaX,X%.f r B X.A A I A A A S D 8 8 V V V V V V I +.+.+.+.+.Y Y Y a.O...M ; ; @ @ @ X ; 2XyX",
"yXBXBX( X # $ $ $ + + + -.,., ~ 0XPXDXmXDXPXsX,X].` d r 7 r D A S A S o.X.X.X.X.o.A I +.+.+.o.X.A m b r > ! ( ,X2X].~ 1 ~ ,XDXiX",
"yXDXDX/ X # # % $ + # $ t ; *.uXrXDXDXZXJXDXDXDXDXvXaX3XoX.X) _ ! ` M b r < < < r r < < < < < 1 ! _ ].oX2XbXDXDXBXPXxXfXxXmXPXyX",
"tXDXDX.X- # # ; # # # > E ,XDXiXrXxXmXmXxXmXvXBXvXmXmXxXvXvXmXtXtXbXaXuX2X<X,X,X,X,XoX,X2X2XsX0XeXmXmXvXxXmXBXxXvXDXmXxXvXvXmXtX",
"yXDXDXcX.XW 2 W E E / .XaXBXPXiX9XqX9X0XrX0X9XqX0X0X0X0X0X9XrX9XyXDXDXDXvX0XhXhXhXhXrXxXDXDXDXyX9XrX9X0XqX0X0X0X0X0X0X0X0X9XrX0X",
"yXDXDXDXmX0XtXdXiXyXqXdXDXDXDXyXyXBXxXxXmXxXxXnXxXxXmXxXxXxXBXyXyXDXDXDXvX0XhXhXhXxXrXxXPXPXDXyXyXmXxXxXxXxXxXxXvXxXxXvXxXxXmXyX",
"yXDXDXDXmXqXdXnXhXhXrXdXDXZXDXyXeXDXvXDXDXZXDXDXDXDXDXDXvXDXPXrXyXDXDXDXmX0XhXhXhXxXrXxXDXDXDXyXeXDXDXvXvXDXDXDXDXDXDXBXvXDXDXrX",
"yXDXDXDXmXrXdXnXhXhXrXdXDXBXDXyXyXPXBXPXPXDXDXPXPXDXPXPXPXDXPXiXyXDXDXDXmX0XhXhXhXhXrXxXDXDXDXyXyXPXPXDXDXPXDXDXDXDXPXDXDXDXPXiX",
"yXDXDXDXmXrXdXnXhXhXrXdXDXBXDXyXrXDXDXDXDXDXmXBXDXmXDXDXmXDXDXyXyXDXDXDXvX0XhXhXhXhXrXxXDXDXDXyXrXDXDXDXDXDXDXmXmXBXDXBXDXDXDXyX",
"yXDXDXDXmXrXdXnXhXhXrXdXDXBXLXiXrXDXDXDXBXDXDXDXvXDXDXmXZXDXDXtXyXDXDXDXvX0XhXhXhXhXrXxXDXDXDXyXrXDXJXDXmXLXDXvXvXDXDXmXDXDXDXtX",
"yXDXDXDXmXrXdXnXhXhXrXzXDXBXPXiXrXyXrXrXyXyXrXyXyXyXyXtXrXrXyX0XyXDXDXDXvX0XdXhXhXhXrXxXDXDXDXyXqXyXrXrXyXyXyXrXtXyXyXyXyXeXyXrX",
"rXBXDXDXmX0XhXhXhXhX0XdXDXvXDXyX0XtXyXrXtX9XrXrXrXrX9XrXtXyXyXrXyXmXDXDXmX0XdXhXhXhX0XdXDXvXPXyX0XyXyXtXtX0XrXrXrXrX0XrXrXtXtXrX",
"rXDXPXJXxX0XdXnXxXhXeXzXLXPXPXyXyXDXPXDXmXrXhXnXnXhXtXxXDXPXDXiXtXDXPXDXxXeXiXnXxXhXeXxXPXDXDXtXyXDXPXPXxXyXhXnXnXdXtXxXPXPXDXhX",
"eXiXyXiXyX0XrXyXyXyX0XrXiXiXdXeXyXDXPXDXxX0XdXhXhXdXrXdXDXPXDXyXqXiXiXyXtXqXrXpXyXyX0XrXyXyXdX0XtXDXDXDXxX0XiXhXhXiX0XxXDXDXDXyX",
"0XyX0XeXrXrXrXrXeXyXrXrXeXeXrX9XyXDXBXDXvXeXhXhXhXhXrXxXDXBXDXiX0XrXrX0XeXrXrXrXrXtXrXrXeXeXyX9XyXDXvXDXxXeXhXhXhXhXrXxXDXmXDXyX",
"yXDXDXDXDXPXDXDXDXPXPXDXDXDXDXyXrXDXBXDXxX0XnXkXnXhXrXdXDXBXDXyXyXDXDXDXDXDXBXDXDXDXPXDXDXDXDXyXrXDXmXDXxX0XhXhXhXhX0XxXDXDXDXyX",
"rXDXDXmXmXDXDXmXZXDXBXmXDXDXDXtXrXPXPXDXmX0XhXkXnXxXrXhXDXDXDXyXrXDXDXvXmXDXvXDXDXDXDXZXDXDXDXrXyXPXBXPXxX0XhXnXnXhXqXxXDXDXLXyX",
"yXPXPXBXDXDXPXDXDXDXDXBXDXBXPXiXyXDXDXDXvXeXhXhXhXxXrXxXDXPXDXiXyXPXDXmXDXPXDXPXDXDXPXDXDXBXPXyXyXDXBXDXxXrXhXhXhXhXrXxXDXDXDXyX",
"rXPXDXDXPXmXDXDXDXDXDXDXDXvXLXyXyXDXDXDXxX0XhXhXhXhX0XzXDXBXDXyXrXDXDXvXDXPXDXZXmXDXDXDXDXvXPXrXyXDXBXDXxXeXdXhXhXdXrXxXDXDXDXyX",
"yXmXmXmXnXBXBXnXmXmXmXmXvXmXBXyXyXDXDXDXvX0XhXhXhXxXrXxXDXBXDXiXrXmXmXxXxXmXBXxXxXBXmXxXvXmXmXtXyXDXDXDXxXeXdXhXhXhX0XxXDXDXDXyX",
"9XeX9X0X0X0X9X9X0X9X0X0X9X3XeX9XyXDXDXDXvX0XhXhXhXxXrXxXDXBXDXiX9XrX0XeXeX0X0XeXeX0X0XeX0X9XrX9XyXDXBXDXxXrXdXhXhXhX0XxXDXDXDXyX",
"rXnXxXxXxXxXxXxXxXnXmXnXxXxXBXyXyXDXDXDXvX0XhXhXhXxXrXxXDXBXDXyXyXPXBXBXDXPXBXDXDXBXPXPXBXBXPXiXyXDXBXDXxXrXhXhXhXhX0XxXDXDXDXyX",
"eXDXDXDXDXDXDXDXDXDXDXBXDXDXDXtXyXDXDXDXvX0XhXhXhXhXrXxXDXBXDXyXeXDXDXmXDXDXDXDXDXDXDXDXmXDXDXrXyXDXBXDXxXrXhXhXhXhX0XxXDXDXDXyX",
"tXDXBXBXDXDXBXBXDXDXDXDXDXmXDXiXyXDXDXDXvX0XhXhXhXhXrXhXDXmXDXyXtXPXDXmXDXDXmXDXDXmXDXDXmXmXPXyXyXDXBXDXxXrXhXhXhXhX0XxXDXDXDXyX",
"rXDXDXDXDXDXDXBXDXBXBXBXDXBXDXyXyXDXDXDXvX0XhXhXhXxXqXxXDXmXDXyXrXPXDXmXDXDXDXDXDXDXDXBXmXDXDXtXyXDXBXDXxXrXhXhXhXhX0XxXDXDXDXyX",
"rXDXDXDXmXDXDXBXDXDXDXDXDXDXDXyXyXDXDXDXvX0XhXhXhXxXrXxXDXBXDXiXeXDXDXmXmXPXDXmXmXDXDXvXmXDXDXtXyXDXBXDXxXrXdXhXhXhX0XxXDXDXDXyX",
"0XyXrXtXtXrXtXtXyXrXyXyXtXrXyX0XyXDXDXDXvX0XhXhXhXxXrXxXDXBXDXiXqXyXeXrXrXrXrXrXrXrXrXrXrX0XrX0XyXDXDXDXxXeXdXhXhXhX0XxXDXDXDXyX"
};
