/* XPM */
static char *_9de31795663401bfaeabb5d3e2f2ee7t7I7SQTBeicVKHUF[] = {
/* columns rows colors chars-per-pixel */
"64 64 162 2 ",
"   c #CCA9BF",
".  c #CEABC2",
"X  c #D2AEC5",
"o  c #D3AFC8",
"O  c #D4B1C6",
"+  c #D5B2C9",
"@  c #D9B6CC",
"#  c #DAB9CC",
"$  c #DAB8CD",
"%  c #DBB8CD",
"&  c #DAB9CD",
"*  c #DBB9CD",
"=  c #DAB8CC",
"-  c #DBB9CE",
";  c #DBB8CF",
":  c #D9B8CC",
">  c #DCB8CE",
",  c #DCB9CE",
"<  c #DCB9CF",
"1  c #DCBACE",
"2  c #DCBACF",
"3  c #DDBACF",
"4  c #DDBCCF",
"5  c #DBB9CE",
"6  c #DCB7D0",
"7  c #DDB7D0",
"8  c #DCB7D0",
"9  c #DCB9D0",
"0  c #DDBAD0",
"q  c #DDBBD0",
"w  c #DDBAD1",
"e  c #DEBBD0",
"r  c #DEBAD1",
"t  c #DEBBD1",
"y  c #DEBBD2",
"u  c #DFBBD2",
"i  c #DEBAD3",
"p  c #DEBCD1",
"a  c #DFBCD1",
"s  c #DFBED1",
"d  c #DFBCD2",
"f  c #DFBDD2",
"g  c #DFBCD3",
"h  c #DEBBD1",
"j  c #E0BBD3",
"k  c #E1BBD3",
"l  c #E0BCD2",
"z  c #E0BDD2",
"x  c #E1BDD2",
"c  c #E0BCD3",
"v  c #E1BCD3",
"b  c #E0BDD3",
"n  c #E1BDD3",
"m  c #E0BED2",
"M  c #E0BFD2",
"N  c #E0BED3",
"B  c #E1BED3",
"V  c #E1BFD3",
"C  c #E0BBD4",
"Z  c #E1BBD4",
"A  c #E1BCD4",
"S  c #E1BDD4",
"D  c #E2BDD5",
"F  c #E1BED4",
"G  c #E1BFD4",
"H  c #E1BFD5",
"J  c #E2BED4",
"K  c #E2BFD4",
"L  c #E2BED5",
"P  c #E2BFD5",
"I  c #E3BFD5",
"U  c #E2BDD6",
"Y  c #E3BED6",
"T  c #E3BFD6",
"R  c #E3BED7",
"E  c #E4BED6",
"W  c #E4BFD6",
"Q  c #E4BED7",
"!  c #E4BFD7",
"~  c #E5BFD7",
"^  c #E2BED5",
"/  c #E5BFD8",
"(  c #E5BFD8",
")  c #E1C0D3",
"_  c #E1C0D4",
"`  c #E2C0D4",
"'  c #E2C1D4",
"]  c #E2C0D5",
"[  c #E3C0D5",
"{  c #E3C1D5",
"}  c #E3C2D5",
"|  c #E3C0D6",
" . c #E3C1D6",
".. c #E4C2D5",
"X. c #E4C0D6",
"o. c #E4C0D7",
"O. c #E4C1D7",
"+. c #E5C1D7",
"@. c #E4C2D6",
"#. c #E4C3D6",
"$. c #E4C2D7",
"%. c #E5C3D7",
"&. c #E4C4D6",
"*. c #E5C4D6",
"=. c #E5C5D6",
"-. c #E5C4D7",
";. c #E5C5D7",
":. c #E6C5D6",
">. c #E6C5D7",
",. c #E6C6D6",
"<. c #E6C6D7",
"1. c #E7C6D7",
"2. c #E7C7D7",
"3. c #E4C3D6",
"4. c #E5C0D8",
"5. c #E4C1D8",
"6. c #E5C1D8",
"7. c #E5C1D9",
"8. c #E6C1D9",
"9. c #E5C2D8",
"0. c #E5C3D8",
"q. c #E6C2D9",
"w. c #E7C3D9",
"e. c #E5C4D8",
"r. c #E6C4D8",
"t. c #E6C5D8",
"y. c #E7C5D9",
"u. c #E6C6D8",
"i. c #E7C6D8",
"p. c #E7C7D8",
"a. c #E7C6D9",
"s. c #E7C7D9",
"d. c #E7C5DA",
"f. c #E6C5D8",
"g. c #E8C7D8",
"h. c #E8C7D9",
"j. c #E8C6DA",
"k. c #E8C7DA",
"l. c #E8C6DB",
"z. c #E8C7DA",
"x. c #E7C8D8",
"c. c #E7C8D8",
"v. c #E8C9D8",
"b. c #E8C8D9",
"n. c #E9C9D9",
"m. c #E8C8DA",
"M. c #E9C8DA",
"N. c #E9C9DA",
"B. c #E8C8DB",
"V. c #E9C8DB",
"C. c #E9C9DB",
"Z. c #E9CADA",
"A. c #E9CADB",
"S. c #EACADA",
"D. c #EACADB",
"F. c #EACBDB",
"G. c #EACCDB",
"H. c #E9C9DC",
"J. c #E9CADC",
"K. c #EACBDC",
"L. c #EACCDC",
"P. c #E9C9DB",
/* pixels */
"X O O X + X X + + X X O O O O X + B.B.B. .+ Y E E Y X  .B.j.L.- X + O O + X X o + X X + O + O X @ B.B.B. .O Y E Y 8.X ) H.a.B.: ",
"@ B.H.B. .+ r 8.Y n + f B.B.B.r @ B.H.B.o.+ f o.E n X  .B.H.H.- + B.H.B.Y + r 8.Y n + Y B.H.j.r % B.H.H.&.+ r E Y Y X o.L.B.H.- ",
"@ B.H.H.j.+ n n Y Y X n B.B.G.2 +  .o. .r + % Y Z 2 X -  .8.o.+ % H.j.B.a.+ n n Y Y X  .H.B.H.- +  .8. .r X % Z j 6 X r o. .o.% ",
"+ B.a.B.a.X n Y Y  .+ ) B.&.B.- X O . . + + X X X O + O . X O X + H.&.B.o.X Y Y Y Y X  .B.&.B.- X O X . O + X X X O X + . . + X ",
"@ B.H.B.a.X Y 8.o.Y + n B.B.L.2 + a.B.&.a.j.&.B.B.&.a.a.j.B.&.- + L.B.B.o.X Y 8.8.Y +  .B.B.H.- @ a.H.a.&.a.&.B.B.j.&.a.B.B.a.@ ",
"% a.H.a.a.+ n Y o.n + f B.B.B.2 + B.B.&.B.H.&.&.a.&.H.B.a.B.B.r % B.a.B.o.+ n Y / n + Y B.B.B.- + B.B.&.B.H.&.a.&.B.B.B.a.B.B.2 ",
"% B.H.B.j.X Y 8.E o.@ ) B.j.B.f % H.B.j.B.B.B.H.H.j.H.j.j.B.H.r @ B.B.B.o.O Y 8.E o.+ o.B.B.B.- @ H.H.B.j.H.B.B.H.B.H.j.j.B.H.r ",
"% B.B.B.a.X n Y Y Y X f B.a.L.2 + H.j.&.B.H.B.B.B.&.B.B.B.B.B.: % B.&.j.o.X n Y Y Y X n B.a.H.- + L.H.&.B.H.&.j.B.B.B.B.B.a.B.- ",
"% B.B.B.a.+ n 8.E n + n B.j.B.2 + B.a.j.B.j.j.j.&.j.B.&.&.B.B.@ % B.B.B.a.X Y E E Y +  .H.B.B.- + B.B.j.B.B.j.j.a.B.B.a.j.B.B.- ",
"% B.B.B.a.+ n 8.E n + n B.B.B.2 . + . X + X X + + + + + X X % X % B.B.B.a.X Y E E  .+  .H.B.B.- . % X X O X X O O X X O X . + X ",
"% B.B.B.a.+ n 8.E Y + n B.j.B.2 + o.f n Y f n Y n Y Y n n f o.+ % B.B.B.a.X Y E E Y +  .H.B.B.- + 8.n f n Y Y  .n Y Y Y n n o.% ",
"% B.B.B.a.+ n 8.E Y + n B.B.B.2 O B.B.B.B.B.B.B.x.B.B.x.B.B.B.+ % B.B.B.a.X Y E E Y +  .H.B.B.- O B.G.B.B.B.B.B.B.B.B.B.B.B.B.: ",
"% B.B.B.a.+ n 8.E Y + n B.a.B.2 % B.&.B.B.B.B.j.B.B.B.B.B.B.B.f % B.B.B.a.X n E E Y +  .H.B.B.- - B.B.B.B.B.j.j.B.B.B.B.B.&.B.4 ",
"% B.B.B.a.+ n 8.E n + n B.a.B.2 + B.j.j.B.j.B.j.B.B.B.j.j.B.B.- % B.B.B.a.X Y E E Y +  .H.B.B.- + B.B.a.a.B.B.j.j.B.B.a.a.j.B.- ",
"% B.B.B.a.+ n 8.E n + n B.j.B.2 + H.B.B.B.B.B.H.B.B.B.B.B.G.H.- % B.B.B.a.X n E E Y +  .L.B.B.- @ H.G.B.B.H.H.B.B.H.B.B.B.H.B.2 ",
"% B.B.B.a.+ n 8.E n + n B.j.B.r X 2 + - 2 @ @ - - % - 2 % + 2 O % B.B.B.a.X Y E E Y +  .H.H.H.- X r + % - % @ - % @ - - @ + - O ",
"+ B.B.B.a.X E Y E n O f H.j.B.- X + + X + . X + + X X X O + O + @ B.B.B. .X n 8.E o.X  .B.&.B.- X O O O O X X + + X X O O + O O ",
"+ H.B.L.j.O n Y Y n + n L.H.B.- % H.H.B.a.+ n 8.8.Y + n B.H.B.f @ B.H.G.&.+ f Y Y Y X  .B.B.H.- % H.H.H.8.+ n 8.8.n @ o.B.H.B.f ",
"+ 8.Y o.r X 6 j j % o %  .8. .@ + H.B.B.a.X n Y Y Y X  .B.B.B.- +  .8. .r X % j Z r X -  .o.8.+ % H.a.B.o.X Y n Y n X  .B.B.L.- ",
"X +   X X X O X X X + X . X O X @ G.&.a.a.X Y Y Y o.O  .B.&.B.2 . O X . O + X X X + X O . . + . @ B.&.B. .X  ./ Y Y X o.B.&.B.2 ",
"@ j.B.B.o.a.a.B.B.&.a.&.B.H.a.- + B.j.B.a.X n E E Y X n B.j.B.2 + j.H.&.&.a.&.j.j.j.a.a.a.B.j.@ @ B.j.B. .X n Y E Y X  .B.j.B.2 ",
"+ B.B.B.B.H.B.&.&.&.H.B.B.B.B.f @ B.H.B.a.+ n 8.E Y +  .B.H.B.2 + B.B.&.B.H.&.a.a.B.B.B.a.B.B.- - B.j.B.&.+ Y Y 8.Y +  .B.B.B.r ",
"% H.H.B.H.B.B.H.H.B.H.j.B.B.H.f - H.B.a.&.X Y E E Y +  .B.j.B.- @ B.H.B.j.H.B.B.H.H.H.j.j.B.H.2 % B.B.B. .X Y 8.E Y +  .B.j.B.r ",
"@ H.B.&.B.B.a.B.B.B.H.B.B.B.B.@ + H.B.B.&.X n E Y Y X n B.j.B.- + B.B.B.B.H.&.B.H.B.B.B.B.B.B.+ % B.a.B.o.X n Y E Y X  .B.j.H.r ",
"% B.B.B.B.B.B.B.a.j.j.&.&.x.B.@ % B.B.B.&.X Y Y Y Y +  .B.j.B.r + B.B.j.B.B.j.j.B.H.H.H.j.H.B.% % B.B.B. .O n E E Y X o.B.B.B.2 ",
". + . X X X . X + X + + O X + . % B.B.B.&.X Y Y Y o.+  .B.j.B.r . + . X O X X O O . X X X . O . - B.j.B. .+ n E E Y X o.B.B.B.2 ",
"+ o.f f n n n Y n n Y Y n n 8.+ % B.B.B.&.X Y Y Y o.+  .B.j.B.2 + 8.n n Y Y Y  . .n n n n n o.+ - B.j.B. .+ Y E E Y X o.B.B.B.2 ",
"+ B.B.B.B.B.B.B.&.B.B.&.&.B.B.+ % B.B.B.&.X Y Y Y o.+  .B.j.B.2 O B.B.B.B.B.B.B.B.H.H.B.B.H.H.@ - B.j.B. .+ Y E E Y X o.B.B.B.2 ",
"- B.B.B.B.B.B.j.B.B.B.B.j.j.B.f % B.B.B.&.X Y Y Y o.+  .B.j.B.2 @ B.j.j.B.B.a.j.B.B.B.B.B.j.H.- % B.j.B. .+ Y E E Y X o.B.B.B.2 ",
"+ B.B.B.a.B.B.B.j.B.H.H.j.B.H.2 % B.B.B.&.X Y Y Y o.+  .B.j.B.2 + B.B.j.j.B.B.B.B.B.B.&.a.B.B.@ % B.j.B. .+ Y E E Y X o.B.B.B.2 ",
"+ H.H.B.B.B.L.B.B.B.B.B.B.B.H.: % B.B.B.&.X Y Y Y o.+  .B.j.B.r + H.L.B.B.B.B.B.B.B.B.B.B.G.H.@ % B.j.B. .+ n E E Y X o.B.B.B.2 ",
"o r + - 2 - - - 2 % - r - + 2 + % B.B.B.&.X Y Y Y Y +  .B.j.B.r X - + - - - + % 2 % - 2 - @ 2 O % B.B.B. .O n E E Y X o.B.B.B.2 ",
"X O + X + X X @ + O X X O + O + @ a.B.B.&.X Y Y 8.n +  .B.j.B.2 X + + O + X X + + + X + O + O X - B.B.B. .+ n E 8.E X  .H.a.B.2 ",
"2 B.H.H.a.+ r 8.8.Y @ n B.B.B.f @ B.H.B.o.O f 8.o.f + ) G.H.H.- % H.H.B.o.+ n 8.8.Y %  .B.H.B.r - B.H.G.o.O f 8.o.Y X  .G.H.H.- ",
"+ B.B.B.a.X n Y Y n X n B.B.B.- + f r 2 % X + > % + X + 2 f f + @ H.j.B.a.X n j Y n +  .B.H.B.% + r r - % X + r % % X @ r r f + ",
"% B.a.B.a.X  .o.Y o.+ n B.&.B.2 X + O O + @ + + + + % O O + + X @ G.&.B.o.X Y Y Y Y +  .B.a.B.- X + + X + + + + + @ + + O O + X ",
"@ B.B.B.a.+ n E E Y + f B.j.B.2 % B.B.B.B.H.B.j.B.B.H.j.B.B.B.2 + B.B.B.o.X n E Y Y X ) B.a.B.- % B.B.a.B.B.B.B.j.H.B.B.B.B.B.2 ",
"% B.H.B.a.+ n 8.E Y + n B.B.B.r + B.B.&.a.B.&.a.B.&.B.&.B.B.B.- - B.H.B.a.+ Y E E o.o o.H.H.B.- + B.B.&.a.B.2.x.a.B.a.a.B.B.B.- ",
"- j.j.B.a.+ Y 8.Y Y + Y B.B.B.2 - H.B.a.B.H.B.H.B.B.H.j.B.B.H.f % B.B.B. .X n 8.Y Y +  .H.B.B.- r H.H.j.B.H.B.H.B.H.B.B.B.B.H.f ",
"% B.H.B.a.X n Y Y n X n L.j.G.2 + B.B.j.B.B.B.B.B.B.B.B.B.j.L.@ @ L.j.B.o.X Y E E n X n B.H.B.- @ L.H.B.B.H.B.B.B.B.B.B.B.a.H.- ",
"% B.B.B.a.+ n 8.E Y + n B.j.H.f + o.a.a.o.a.&.j.&.a.a.o.&.&.a.@ % B.B.B.&.X n E E Y +  .B.B.B.- + a.a.&.&.a.j.o.&.B.a.o.&.&.&.@ ",
"% B.B.B.a.+ n 8.E Y + n B.j.H.r . o . X + X . o X X X X X . + . % B.B.B.&.X Y E E Y +  .B.B.B.- . + . X o X X X X X X X X . + X ",
"% B.B.B.a.+ n 8.E Y + n B.j.B.2 % j. .o.a.o. .8.o.&.a.o. .o.j.% % B.B.B.&.X Y E E Y +  .B.B.B.- % a.o.o.o.o. .o.&.o.o.&.o.o.a.% ",
"% B.B.B.a.+ n 8.E Y + n B.j.B.2 O B.&.B.B.x.B.B.B.B.B.B.&.B.H.+ % B.B.B.a.X Y E E Y +  .B.B.B.% O B.B.&.&.B.B.B.B.B.B.j.&.B.B.+ ",
"% B.B.B.a.+ n 8.E Y + n B.j.B.2 % H.j.H.H.B.B.H.H.B.H.H.H.B.H.f % B.B.B.a.X Y E E Y +  .B.B.B.% - H.H.B.B.H.B.B.B.B.H.B.B.B.H.f ",
"% B.B.B.a.+ n 8.E Y + n B.j.B.2 + B.B.B.B.B.a.j.B.a.B.B.a.B.B.- % B.B.B.&.X Y E E Y +  .B.B.B.- + B.B.B.B.B.B.a.a.j.B.j.B.B.B.- ",
"% B.B.B.a.+ n 8.E Y + n B.B.L.r + B.B.B.j.B.B.B.&.B.B.a.x.B.B.@ % B.B.B.&.X Y E E Y +  .B.B.B.- + B.G.B.a.H.B.&.&.B.B.a.B.B.B.@ ",
"% B.B.B.a.+ n 8.E Y + ) B.B.L.f + % + @ % % + % % % % @ + + % X % B.B.B.&.X n E E Y +  .B.B.B.- o % + + % % % + @ % % % % O % + ",
"+ j.B.B.a.X Y Y E E X n B.&.B.- X : - + @ . + + @ + . + @ % - + % a.B.B.a.X n E E Y X n B.&.H.- X - % @ @ X + @ @ + X + + @ @ + ",
"+ B.H.G.o.X n 8.o.Y O ) L.H.H.- 2 B.H.B.a.+ Y 8.8.Y @  .B.H.B.r @ B.H.B.o.O f 8.o.Y O  .H.B.B.: - B.H.H.o.% Y 8.8.n @  .H.H.B.Y ",
"O f 2 r % X + % % % X + r r n O % B.H.B.o.X n Y Y n + n B.H.B.- o f r - @ o + 6 % % X + 2 2 n X @ B.B.B. .X r Y Y r X  .B.B.B.2 ",
"X % X O + + + + O % + + O O + . % B.j.B.&.O Y Y Y Y +  .B.j.B.f X + + X O + + + + @ + + O O % . - B.&.B.o.O Y Y Y Y + o.B.a.B.2 ",
"- B.B.B.B.H.B.B.B.H.H.B.B.B.B.- + B.j.B.o.X 8./ 8.Y + n B.j.B.2 % B.B.B.B.B.j.B.B.B.H.B.B.B.B.- + B.a.B. .X Y E E Y X  .B.B.B.2 ",
"+ B.B.a.a.B.B.a.x.B.j.a.B.B.B.: + H.H.B.a.X E / 8.o.+ Y B.B.B.2 + B.B.&.a.B.&.B.B.B.B.x.B.B.B.+ % H.j.H.o.X Y 8.8.Y o o.B.B.H.2 ",
"- H.H.j.B.B.H.B.B.B.B.j.B.j.H.f % B.B.B.&.O Y Y Y o.+  .B.H.B.r % H.B.a.B.H.B.H.B.B.H.B.B.j.H.- % B.j.B.o.+ Y Y E Y + o.B.j.B.2 ",
"+ H.B.B.H.a.B.B.B.B.B.B.B.&.L.- % B.B.B. .X Y Y Y Y X ) B.j.B.- + B.B.&.B.H.B.x.a.B.B.B.B.&.H.+ % B.j.B. .O n E Y n +  .B.B.B.2 ",
"% a.a.a.8.j.j.a.a.a.a.a.&.a.j.% % B.B.B.&.X Y Y Y o.+  .B.j.B.r + a.a.o.o.a.j.o.o.j.a. .&.a.a.@ % B.B.B. .O n E E Y X o.B.B.B.2 ",
". O . X X X . . X . X X .   O . % B.B.B.&.X Y Y Y o.+  .B.j.B.r . + X O O X X O O X X O X . + . % B.j.B. .+ n E E Y X o.B.B.B.2 ",
"+ 8. . .o. . . .o.8.a.8.o.o.j.% % B.B.B.&.X Y Y Y o.+  .B.j.B.2 - H.j.j.B.H.j.B.B.j.H.H.j.j.H.r % B.j.B. .+ Y E E Y X o.B.B.B.2 ",
"O B.B.B.B.B.B.B.B.B.B.j.B.B.B.@ % B.B.B.&.X Y Y Y Y +  .B.j.B.2 O B.B.a.B.B.B.B.B.B.B.B.a.B.B.+ % B.j.B. .+ Y E E Y X o.B.B.B.2 ",
"@ B.j.j.B.B.j.j.B.B.B.B.B.a.B.f % B.B.B.&.X Y Y Y Y +  .B.j.B.2 @ H.B.a.B.B.a.B.B.a.B.B.a.a.H.- % B.j.B. .+ Y E E Y X o.B.B.B.2 ",
"+ B.B.B.B.B.B.j.B.j.j.j.B.j.B.- % B.B.B.&.X Y Y Y o.+  .B.j.B.2 + H.B.a.B.B.B.B.B.B.B.j.a.B.B.: - B.j.B. .+ Y E E Y X o.B.B.B.2 ",
"+ B.B.B.a.B.B.B.B.B.B.B.B.B.B.- % B.B.B.&.X Y Y Y o.+  .B.j.B.r O B.B.a.a.H.B.a.a.B.B.&.a.B.B.@ - B.B.B. .+ n E E Y X o.B.B.B.2 ",
"X % + @ @ + @ @ % + % % @ + % X % B.B.B.&.X Y Y Y o.+  .B.j.B.r o % O + + + + + + + + + + X + X - B.B.B. .O n E E Y X o.B.B.B.2 "
};
