/* XPM */
static char *_99136f06cba4028912daf7bffd280daRfsKaKT72mtjy7Eq[] = {
/* columns rows colors chars-per-pixel */
"64 64 251 2 ",
"   c #1A3A18",
".  c #2C470A",
"X  c #364B0B",
"o  c #39560D",
"O  c #274D17",
"+  c #325318",
"@  c #387B17",
"#  c #396409",
"$  c #184A29",
"%  c #1B5429",
"&  c #184C38",
"*  c #1A5539",
"=  c #0C4534",
"-  c #295828",
";  c #255C38",
":  c #335928",
">  c #376529",
",  c #397929",
"<  c #296638",
"1  c #376836",
"2  c #387837",
"3  c #2D6F2C",
"4  c #465D16",
"5  c #577909",
"6  c #4A6515",
"7  c #437D1A",
"8  c #5A7B1B",
"9  c #57791D",
"0  c #4D6F0C",
"q  c #627D12",
"w  c #495A2E",
"e  c #496927",
"r  c #467927",
"t  c #557824",
"y  c #447937",
"u  c #576F33",
"i  c #657C2A",
"p  c #0B3B42",
"a  c #164A47",
"s  c #14504A",
"d  c #265649",
"f  c #265457",
"g  c #355857",
"h  c #2C514E",
"j  c #387842",
"k  c #2E6A4B",
"l  c #375A62",
"z  c #3B6C6B",
"x  c #4D5E4D",
"c  c #4C6A54",
"v  c #6D7453",
"b  c #566968",
"n  c #5C6D75",
"m  c #506C70",
"M  c #6A7675",
"N  c #495C65",
"B  c #847E7F",
"V  c #3C8819",
"C  c #3E8C13",
"Z  c #3B8429",
"A  c #3C8537",
"S  c #4C880C",
"D  c #48871A",
"F  c #5A8817",
"G  c #5A961A",
"H  c #4F8B12",
"J  c #668B0A",
"K  c #69950A",
"L  c #77990B",
"P  c #6B8B1B",
"I  c #668917",
"U  c #6B9315",
"Y  c #6D9C15",
"T  c #63921A",
"R  c #6C9419",
"E  c #679B1A",
"W  c #749B14",
"Q  c #7A9C13",
"!  c #73951B",
"~  c #769818",
"^  c #738C11",
"/  c #5FA419",
"(  c #7AA20A",
")  c #6AA519",
"_  c #7BA414",
"`  c #7CAA14",
"'  c #74A31A",
"]  c #78A718",
"[  c #79B71B",
"{  c #67B21E",
"}  c #478728",
"|  c #568B26",
" . c #4D9424",
".. c #4B942B",
"X. c #4B9A2B",
"o. c #489826",
"O. c #539423",
"+. c #5B9324",
"@. c #539A23",
"#. c #5A9C23",
"$. c #539B2B",
"%. c #58982B",
"&. c #468836",
"*. c #5A8737",
"=. c #4A9333",
"-. c #589531",
";. c #688A27",
":. c #679827",
">. c #789A25",
",. c #738F31",
"<. c #4DA12B",
"1. c #5CA323",
"2. c #57A828",
"3. c #5DB229",
"4. c #59A737",
"5. c #66A724",
"6. c #67B624",
"7. c #76B924",
"8. c #66B63B",
"9. c #78BA39",
"0. c #71A72A",
"q. c #7BC11C",
"w. c #79C225",
"e. c #76C337",
"r. c #3B8452",
"t. c #448745",
"y. c #52944D",
"u. c #74844E",
"i. c #59A75A",
"p. c #6DB34E",
"a. c #79866B",
"s. c #559C6A",
"d. c #73C351",
"f. c #6AC266",
"g. c #819D0E",
"h. c #849D13",
"j. c #86A80C",
"k. c #95B20D",
"l. c #9BB50C",
"z. c #9ABA0C",
"x. c #84A414",
"c. c #8AA612",
"v. c #8CAB14",
"b. c #8AAB1B",
"n. c #84A818",
"m. c #92AE13",
"M. c #91AD1B",
"N. c #86B718",
"B. c #9CBB14",
"V. c #97B716",
"C. c #90B10E",
"Z. c #A5BE0C",
"A. c #A4B914",
"S. c #8EB42D",
"D. c #A7BA31",
"F. c #829236",
"G. c #88C41C",
"H. c #9CC314",
"J. c #99C819",
"K. c #9FD01E",
"L. c #A9C30C",
"P. c #A8CA16",
"I. c #B4C915",
"U. c #A8D418",
"Y. c #B6D816",
"T. c #B9D50D",
"R. c #BCE216",
"E. c #87C827",
"W. c #8FCB32",
"Q. c #B8D927",
"!. c #B8CA3A",
"~. c #ACC930",
"^. c #B8E327",
"/. c #C4E218",
"(. c #C2E625",
"). c #C7D531",
"_. c #85944F",
"`. c #85876A",
"'. c #8C8976",
"]. c #949277",
"[. c #9BA567",
"{. c #A0B654",
"}. c #88CA46",
"|. c #8DD049",
" X c #B4DC4E",
".X c #AED74F",
"XX c #B8E455",
"oX c #8CD269",
"OX c #B4C863",
"+X c #CBDB48",
"@X c #D9E74A",
"#X c #C8EA57",
"$X c #D8E952",
"%X c #D9FA58",
"&X c #E3F156",
"*X c #DAF463",
"=X c #DDEC74",
"-X c #E9F568",
";X c #757D87",
":X c #6D7986",
">X c #7B828C",
",X c #768390",
"<X c #74A5A6",
"1X c #78C789",
"2X c #8A8787",
"3X c #878997",
"4X c #938F93",
"5X c #A39797",
"6X c #A99D92",
"7X c #B1A796",
"8X c #9C97A5",
"9X c #9A8EA2",
"0X c #A799AA",
"qX c #B19DAB",
"wX c #BAA5B6",
"eX c #B5A8B3",
"rX c #8EBBBC",
"tX c #C7AABB",
"yX c #CBB4B9",
"uX c #C8B6AE",
"iX c #95DA89",
"pX c #AEE799",
"aX c #E6F490",
"sX c #CDACC2",
"dX c #C2AEC1",
"fX c #D2AEC5",
"gX c #D3AFC8",
"hX c #CDB3C4",
"jX c #CAB4C6",
"kX c #D3B1C6",
"lX c #D5B2C9",
"zX c #D9B6CC",
"xX c #DBB9CE",
"cX c #D6BCC9",
"vX c #DEBBD1",
"bX c #DDB7D0",
"nX c #E2BED5",
"mX c #E5BFD8",
"MX c #A5CBCD",
"NX c #DEC2CE",
"BX c #DEC1D2",
"VX c #E3C2D6",
"CX c #E6C5D8",
"ZX c #E8C7DA",
"AX c #E9C9DB",
"SX c #E9C9DA",
"DX c #E9CADC",
"FX c #E9C9DB",
"GX c #E0C3CF",
"HX c #CEF7D7",
"JX c #DBFFF1",
/* pixels */
"fXkXkXfXlXfXfXlXlXfXfXkXkXkXkXfXlXAXAXAXVXlXnXmXmXnXfXVXAXZXDXxXfXlXkXkXlXfXfXfXlXfXfXlXkXlXkXfXzXAXAXAXVXfXnXnXnXCXfXVXDXZXAXzX",
"zXAXDXAXVXlXvXCXnXnXlXvXAXAXAXvXzXAXDXAXVXlXnXnXnXnXfXVXAXDXDXxXlXAXDXAXVXlXvXCXnXnXlXnXAXDXZXvXxXAXDXDXVXlXvXnXnXnXfXVXDXAXDXxX",
"zXAXDXDXZXlXnXnXnXnXfXnXAXAXDXxXlXVXVXVXvXsXe 6XnXxXfXxXVXCXVX5Xb cXZXDXZXlXnXnXnXnXfXVXDXAXDXxXlXVXCXVXvXfXxXnXnXbXfXvXVXVXVXxX",
"lXAXZXAXZXfXnXnXnXVXlXVXAXVXAXxXfXkXsXsXlXlXu `.fXkXlXkXsXfXfXM M VXVXAXVXfXnXnXnXnXfXVXAXVXAXxXfXkXfXsXkXlXfXfXfXkXfXlXsXsXlXfX",
"zXAXDXAXZXfXnXCXnXnXlXnXAXAXAXxXlXZXAXVXZXVXa.u.7X4X'.'.2X5X7Xb 2XAXAXAXVXfXnXCXCXnXlXVXAXAXDXxXzXZXDXZXVXZXVXAXAXZXVXZXAXAXZXzX",
"xXZXDXZXZXlXnXnXnXnXlXnXAXZXAXxXlXAXAXVXuX].u o o # # # o + O O x 5XcXAXVXlXnXnXmXxXfXnXAXAXAXxXlXAXAXVXAXDXVXZXVXAXAXAXZXAXAXxX",
"xXAXDXAXZXfXnXCXnXnXzXVX[.,.GXvXlXcX`.i 0 F 0.S..XW.W.W.W.}.}.p.&.> O c 4XtXnXCXkXg M VXAXDXAXxXzXDXDXAXZXDXAXAXDXAXDXZXZXAXDXvX",
"xXAXAXZXZXfXnXnXnXnXfXnXuX,.[.yX].,.5 ^ x.n.` ` _ ` N.N.` ) ) ) G 5.| > - b qXvX>Xg qXnXAXZXDXxXlXDXDXVXAXDXVXZXAXAXAXAXAXZXAXxX",
"xXAXAXAXZXlXnXmXnXnXlXnXAXuX;.;.5 n.^.^.^.^.N._ ` #X%X%X*X XE G 6.E.W.W.}.> $ b h 0XlXVXDXAXDXxXlXAXAXZXAXAXZXZXZXAXAXZXZXAXAXxX",
"xXAXAXAXZXlXnXmXnXnXlXnXAXyXq J Q.^.R.Y.H.( ( K !.%X%X%X%X-XW.S H H G ) E.|.p.$ x lXlXVXDXAXDXxXsXxXfXfXkXfXfXkXkXfXfXkXfXsXlXfX",
"xXAXAXAXZXlXnXCXnXnXlXnXuX;.x.(.R.R.P.( ( C.N.N.` ~.+X#XXXS.G 5./ 6./ S C 5.W.p.- b tXVXDXAXDXxXlXCXnXvXnXnXnXVXnXnXnXnXnXnXVXxX",
"xXAXAXAXZXlXnXCXnXnXlX7XP v.(.R.R.H.j.H.U.U.K.N.] K K ) ) E G H 7.w.w.w.6.H  .e.}.> c jXDXAXDXxXkXAXAXAXAXAXAXAXAXAXAXAXAXAXAXzX",
"xXAXAXAXZXlXnXCXnXnXtX;.n.(.R.R.P.j.P.Y.U.U.U.K.Y ) ] ) ) { { G 5.w.[ q.w.6.D 1.e.}.$ M VXAXAXxXxXAXAXAXAXAXZXZXAXAXAXAXAXVXAXxX",
"xXAXAXAXZXtX[.[.uXxX_.L ^.R.R.Y.j.H.Y.U.U.U.U.N.K W.K.E.E.E.G.7.S 6.q.7.6.6.6.V <.e.p.= 4XAX0Xn ;XAXAXZXZXAXAXZXZXAXAXZXZXZXAXxX",
"xXAXAXAXZXsX7X,.,._.J Q./.Y.Y.H.k.Q.U.U.U.K.K.] ] J.G.G.G.G.q.w.H G 7.6.6.6.6.o.V 3.oXa.h M g N 9XDXDXAXAXDXDXAXAXDXAXAXAXDXAXxX",
"xXAXAXAXZXlXnXcX7XI B./.R.Y.P.C.U.Y.U.U.U.K.G.Y E.G.G.G.G.q.q.[ 5.H 6.6.6.6.6.3.V X.8.pXk h wXhXfXvXlXxXxXxXzXxXxXzXxXxXzXlXxXkX",
"lXAXAXAXZXfXnXnX7X5 Q.R.Y.Y.H.C.Y.U.U.U.P.K.` ] W.G.G.G.N.[ [ [ 7.H 1.6.6.6.3.3.o.Z 2.6.y.& VXzXfXkXkXkXkXfXfXlXlXfXfXkXkXlXkXfX",
"lXDXAXDXZXkXnXxXu.c.(.T.Y.Y.j.H.U.( J.U.J.J.U ` G.G.N.N.[ 7.S G 7.G } 6.{ 6.3.3.2.V 2.2.d.3 8XxXxXDXDXDXCXlXnXCXCXnXzXVXAXDXAXvX",
"lXCXnXVXvXfXxXuX;.~./.Y.Y.U.j.P.P.( N.P.J.G.J N.G.N.N.[ [ 7.H ) 7.G D 6.5.3.3.3.2.V o.2.e.y.n sXxXDXZXAXVXfXnXnXnXnXfXVXAXAXDXxX",
"fXlXtXfXfXfXkX].I Q.T.Y.Y.P.C.U.P.j.j.J.J.N.J N.G.N.N.[ [ 7.S ) { 5.@ 1.5.1.2.2.2.o.Z 2.6.p.d 0XzXAXVXAXVXfXVXmXnXnXfXVXAXVXAXxX",
"zXZXAXAXVXZXZX_.W Q.T.T.I.B.z.P.P.V.C.H.J.` U N.( N.N.[ [ [ ) { ) 5.7 #.1.1.1.2.2.X.Z 2.2.p.= 9XzXAXZXAXVXfXnXnXnXnXfXVXAXZXAXxX",
"lXAXAXGXcXNXGXi x.Y.T.T.P.C.z.P.P.P.J.H.J.W Y n.S ' N.[ [ { { ) ) 5.7 O.1.1.1.D C 2.Z <.2.p.$ ;XsXcXjXBXVXlXnXnXCXnXlXVXAXAXAXvX",
"xXDXDX6Xu.u.u.6 c.Y.T.I.P.j.H.P.H.H.H.H.V.U ' N.J Y ` ` ] ) ) ) ) 5.D  .1.1.1.@ V 2.Z X.<.p.$ h g l l 8XVXfXnXCXnXnXlXVXAXZXAXvX",
"zXDXAXyX7X].].6 c.Y.T.P.P._ H.P.H.H.B.V.V.I ] N.J J ] ] ) ) ) ) ) 1.D  .1.1.@.@ o.2.Z o.<.p.% g :X3X8XcXVXfXnXnXnXnXfXVXAXZXDXvX",
"xXAXAXAXAXAXVX6 v.I.P.L.B._ H.H.V.V.V.V.M.I _ b.` ] ] ] ) ) ) ) E :.7 | #.#.@.D @.2.Z ..<.8.% n xXAXAXAXVXkXnXnXnXnXfXVXAXAXAXxX",
"sXlXsXfXfXfXtX6 v.I.L.L.B._ B.B.L j.V.C.b.I _ n.` ] _ ' ) Y E E E +.7  .#.G #.@.@.<.Z ..<.4.- N xXAXZXAXVXlXnXnXnXnXfXVXAXAXAXxX",
"lXVXvXvXnXnXyX6 M.P.L.L.B._ V.V.K L V.m.b.I _ x._ _ ' Y Y F S E G +.r | @.G @.@.@.$.Z } X.4.< l lXAXZXAXVXlXnXnXnXnXfXVXAXAXAXxX",
"lXAXAXAXAXAXyX6 M.L.L.L.V.Q V.V.K K m.v.x.F ' _ _ W W Y ! 0 5 T G +.r | O.G @.@.@.$.Z } X.<.3 g kXAXZXAXVXlXnXnXnXnXfXVXAXAXAXxX",
"xXAXAXAXAXAXuX6 M.L.Z.Z.V.Q V.V.L L v.j.x.F Q _ Q W Y Y T 0 F E G +.r } O.G G @.@.X., Z X.<.2 h sXAXZXAXVXlXnXnXnXnXfXVXAXDXAXvX",
"lXAXAXZXVXVX7X6 M.Z.z.l.m.W m.m.v.v.c.c.Q F Q Q Q W Y R T 5 T T G O.r } G G O.@. .$.2 Z X.o.2 h eXxXVXAXVXlXnXnXnXnXfXVXAXDXAXvX",
"lXDXDX7X].`.v 6 M.z.l.l.m.W v.m.v.c.c.x.~ 8 ~ Q W W R U U T T G G O., } O.O.@. . .X.2 Z X.o.j & N n :X8XVXlXnXnXnXnXfXVXAXAXDXvX",
"gXvXlXv v a.v 6 M.l.l.k.v.U v.v.c.j.g.g.~ 8 ~ W ! U R U T T T G G | ,  .O.@.} @  ...2 Z o.o.t.& :X;Xn >XvXkXnXnXnXnXfXVXAXAXDXvX",
"gXkXlXtXtXtX'.6 M.l.l.k.c.U c.c.c.c.g.g.~ 9 ! W I 5 R U T T T T G | , | O.O.@ ,  ...2 Z ..o.t.& qXVXxXBXVXlXnXnXbXjXwXjXCXZXDXxX",
"xXAXDXDXZXgX`.0 b.l.k.m.x.P x.c.x.h.g.g.~ 8 ~ ~ I 0 R R T T T G G | > | O.} # }  ...2 2 =.o.2 & 0XAXDXDXVXkXlX3Xz f a f n dXDXxX",
"lXAXAXAXZXtXv 9 ] m.m.v.Q I Q c.c.g.g.Q P 8 P ! P 0 I T T T T G G | , } O. .} ....&.2 2 A &.j * 3XvXvXxXzX3Xf * s.MXMXrXz s 3XlX",
"xXAXZXAXCXfX'.6 >.x.v.h.^ P U x.x.g.L Q I 9 I ! R 5 T T T T T G +.r , r O.O.O. ...2 j j 2 2 k & 0XlXlXqXl = y.iXpXHXHXHXpXs.s 3X",
"zXAXAXAXZXlXhXw 6 >.~ ^ P P I ~ x.Q Q U 8 t 9 P R U U T T T G G | r y , }  . .=.&.2 j 2 j j * b hXZX4Xh * i.oXoXoXoXiXiXoXiXk ,X",
"xXAXDXAXZXlXnX5Xw 6 >.>.! P I I ~ Q ! I t t t 8 P R R T T T ;.| r y 2 2 , } } y 2 2 j j k ; c qXkXqXa k p.p.d.d.oXoXoXoXoXoXk ;X",
"xXZXZXAXZXlXnXCXzX`.. X 9 ;.>.{.F.I 8 9 9 t t t 9 8 F F | | r e y y 2 2 2 2 2 2 2 2 < & d >XAXxX3Xp a d < j t.y.i.i.i.i.y.k f 0X",
"xXAXDXAXZXfXnXnXtXv X t X X 4 _.OX,.;.;.;.| | t t t t t r r r y y y y y 2 j 1 < ; % % < & m cXxXwX3XM m g g d d d d d d f N 8XlX",
"xXAXAXAXZXlXnXtXx X OX.X{.F.4 . . . X 4 e t u i *.*.*.*.*.y y y y 1 1 : - % $ % ; j y.y.y.* m tXlXZXZXVXvXxXlXdXtXdXdXtXjXBXZXzX",
"xXAXAXAXZXlXnXv 6 =X+X!.!.!.! i t e 4 X X . . . . O O O O O O O O O - - 1 1 2 y &.&.4.4.4.p.$ n sXfX3X3X9X0XwXsXfXfXfXfXfXsXlXfX",
"xXAXAXAXZXlXlX. {.@X@X+X+X+XS.^ P I I i ,.;.t e e e e e e e e e r y.*.y y &.&.&.=.4.8.8.8.8.y.h tXxXa a * = s f n dXvXVXVXVXZXxX",
"xXAXAXAXZXlXyXX OX&X@X@X@X+Xh.g.^ ^ P I I ;.;.;.;.;.;.;.*.*.*.-.-.*.} &.&.=.=.=.X.4.9.9.9.e.y.h wXAX3Xs r.i.i.s.z f ,XVXVXAXAXlX",
"xXAXAXAXZXlXlXX D.-X&X&X@X@X!.V.h.h.~ P P I P P ;.:.:.:.:.:.-.-.| | | -.-.%.%.%.4.9.e.e.e.}.2 g hXDXCX:X= i.d.oXHX<Xf eXAXAXDXvX",
"xXAXAXAXZXlXnXw ^ +X-X-X&X&X&X$X$X!.h.L ^ ^ P P I I I I ;.+.+.+.+.+.%.%.#.8.}.}.}.W.e.}.|.p.% b lXDXAXBX:X= i.f.iXJX<Xf VXAXAXxX",
"xXAXAXAXVXtXkXv q A.Q.@X-X-X&X&X$X$X+X~.D.D.!..XS.>.! >.>.>.S.|.S.S.9.S.W.|.|.|.|.|.}.9.4.=.& >XkXDXAXZXcXn * i.f.iX1Xs wXAXAXzX",
"xXAXAXNXv u u e 6 ~.Z.Z.m.S.+X&X-X-X*X=X=X$X$X#X#X#XXX X X X X X X X X X.X.X.X|.d.2.@ o.o.t.& >X9X8XtXlXzXlX:Xs r.f.i.s wXkXxXlX",
"lXZXAXVX`.a.'.'.e M.L.Z.C.L l.A.D.!.#XaXaX*X*X*X*X*X*X*X#X#X#X#XXXXX.X.X|.9.5.G  ., , =...t.= a a a 9XlXlXfXsXn a k s z kXzXzXlX",
"lXAXDXDXVXfXnXnXv ^ I.L.B.W l.A.l.k.c.x.I J v.v.b.b.b.n.n.] ' ! :.D 7 G G @.@. ...3 } ..=.< >XwXwXjXCXDXVXxXnXCXjX,X3XxXDXDXAXnX",
"kXvXxXvXxXfXlXxX'.0 ~.L.A.( k.A.l.j.c.M.U F x.Q Q Q W W Y E E E :.D } #.G D D @...3 ..o.&.% qXkXlXDXAXAXVXfXvXnXnXxXfXVXAXAXAXxX",
"fXxXfXkXkXlXlXlX7Xo V.L.Z.C.j.A.l.L ^ M.W F n.x.Q J ] ] ' E E E :.D ..#.#.@ @ %.} , o.o.2 & lXsXxXAXVXAXVXkXnXnXnXnXlXVXAXZXAXxX",
"xXAXAXAXAXAXAXAXcXu b.L.L.l.Q B.l.c.J b.Q F n.x.W 0 ! ] ' ) ) E :.} %.#.#.@ } %.Z Z ..X.< g AXxXlXAXZXAXVXfXnXnXnXnXfXVXAXAXAXxX",
"lXAXAXZXZXAXAXZXVXu.q I.Z.A.L V.l.m.J c.n.F n.n.~ 0 R ] ' E ) E +.7 %.#.#.@ ..-., } X.=.* ,XAXlXxXDXZXDXVXfXnXCXCXnXlXVXAXAXDXxX",
"xXDXDXZXAXZXcX6Xu.u 0 ~.I.L.L v.z.l.m.m.b.F n.n.] 5 R ] ' T S E +.7 #.#.#.@.$.=., =.X.&.* n hXlXxXAXZXAXVXlXnXnXnXnXlXVXAXZXAXxX",
"lXDXAXAXDXyXu.u `.7Xu h.I.I._ j.B.l.l.m.b.F x.n.n.W ] _ ' F S 5.O.D 1.G #.#.#.&., X.X.2 d g N :XsXAXZXAXVXkXnXnXnXnXlXVXAXAXAXxX",
"xXZXZXZXCXVXyXxXZXZXa.0 V.P.( L B.l.l.k.M.F Q n.n.` _ ] ' 5 H 0.| } 1.#.#.#.%., 3 =.&.& 3XVX8Xn eXAXAXAXVXkXnXnXnXnXfXVXAXAXAXxX",
"sXkXsXfXfXfXsXsXfXsX4X6 ! n.W W c.B.l.k.b.F U n.x._ _ ] ' F T 0.} } #.#.#.$..., 2 2 < a 0XsXkXwXlXAXZXAXVXlXnXnXnXnXfXVXAXAXAXxX",
"lXCXVXVXVXVXVXVXVXCXVXv 6 I 0.! W v.A.V.W F F ~ b._ ] ' ' ' 0.+.r , } #.#.} , 2 j < & 3XZXZXDXvXxXAXZXAXVXlXnXnXnXnXfXVXAXAXAXxX",
"kXAXAXAXAXAXAXAXAXAXAXNX`.e 6 ;.;.R ~ ! F F F F E ] ] ] ] ) +.r } r , r } 2 2 < * g 4XAXZXAXAXlXxXAXZXAXVXlXnXnXnXnXfXVXAXAXAXxX",
"zXZXZXZXAXAXZXZXAXAXAXAXAXNX`.w + + e t | | | | F F | +.| D } } } y 2 1 ; * & g 2XBXAXAXZXZXDXxXxXAXZXAXVXlXnXnXnXnXfXVXAXAXAXxX",
"lXAXAXAXAXAXAXZXAXZXZXZXAXZXZXtX5X'.v u w : : > > > > > > 1 1 : - ; k c n 4XeXxXZXAXAXZXZXAXAXzXxXAXZXAXVXlXnXnXnXnXfXVXAXAXAXxX",
"lXAXAXAXZXAXAXZXAXAXAXAXAXAXAXxXxXAXVXhXqX2X2X2X2X2XB 2X2X2X2X2X2X5XeXhXZXDXAXZXZXAXAXVXZXAXAXzXxXAXZXAXVXlXnXnXnXnXfXVXAXAXAXxX",
"fXxXlXzXzXlXzXzXxXlXxXxXzXlXxXfXxXAXAXAXVXfXnXnXnXVXlXVXAXZXAXvXgXxXkXlXlXlXlXlXlXlXlXlXlXfXlXfXxXAXAXAXVXkXnXnXnXnXfXVXAXAXAXxX"
};
